<svg width="1057" height="1143" xmlns="http://www.w3.org/2000/svg" xmlns:xlink="http://www.w3.org/1999/xlink" xml:space="preserve" overflow="hidden"><g transform="translate(-1499 -723)"><path d="M0 0 106.762 0 145.272 38.5103 145.272 77.0206 0 77.0206Z" fill-rule="evenodd" transform="matrix(0.987766 0.155943 0.155943 -0.987766 2340.34 1469.14)"/><path d="M2366.49 1427.44 2383.02 1430.05 2381.23 1441.38 2364.71 1438.78Z" fill="#FFFFFF" fill-rule="evenodd"/><path d="M2381.23 1441.38 2397.76 1443.99 2395.97 1455.33 2379.44 1452.72Z" fill="#FFFFFF" fill-rule="evenodd"/><path d="M2394.58 1455.11 2411.1 1457.72 2409.31 1469.05 2392.79 1466.44Z" fill="#FFFFFF" fill-rule="evenodd"/><path d="M2154.5 1491.5C2154.5 1406.45 2223.22 1337.5 2308 1337.5 2392.78 1337.5 2461.5 1406.45 2461.5 1491.5 2461.5 1576.55 2392.78 1645.5 2308 1645.5 2223.22 1645.5 2154.5 1576.55 2154.5 1491.5Z" stroke="#000000" stroke-width="9.16667" stroke-linecap="round" stroke-linejoin="round" stroke-miterlimit="10" fill="#A9D18E" fill-rule="evenodd"/><path d="M2306.67 1645.5C2309.92 1673.83 2313.18 1702.17 2310.52 1720.08 2307.87 1738 2294.2 1744.6 2290.75 1753 2287.29 1761.4 2288.54 1765.95 2289.78 1770.5" stroke="#000000" stroke-width="9.16667" stroke-linecap="round" stroke-linejoin="round" stroke-miterlimit="10" fill="none" fill-rule="evenodd"/><path d="M2312.5 1725.5C2318.5 1733.42 2324.5 1741.33 2327.5 1748.83 2330.5 1756.33 2330.5 1763.42 2330.5 1770.5" stroke="#000000" stroke-width="9.16667" stroke-linecap="round" stroke-linejoin="round" stroke-miterlimit="10" fill="none" fill-rule="evenodd"/><path d="M2314.35 1665.4C2328.99 1667.66 2343.63 1669.92 2345.35 1676.16 2347.06 1682.39 2335.86 1692.6 2324.65 1702.81" stroke="#000000" stroke-width="9.16667" stroke-linecap="round" stroke-linejoin="round" stroke-miterlimit="10" fill="none" fill-rule="evenodd"/><path d="M2305.5 1645.5 2310.5 1681.5" stroke="#000000" stroke-width="9.16667" stroke-linecap="round" stroke-linejoin="round" stroke-miterlimit="10" fill="none" fill-rule="evenodd"/><path d="M0 0 106.605 84.5953" stroke="#000000" stroke-width="13.75" stroke-linecap="round" stroke-linejoin="round" stroke-miterlimit="10" fill="none" fill-rule="evenodd" transform="matrix(-1 0 0 1 2485.6 1431)"/><path d="M2299.26 1409.93 2357.38 1409.81" stroke="#000000" stroke-width="27.5" stroke-linecap="round" stroke-linejoin="round" stroke-miterlimit="10" fill="none" fill-rule="evenodd"/><path d="M2096.05 1431.17C2103.3 1393.91 2136.73 1304.4 2186.49 1287.44 2236.25 1270.47 2355.02 1303.78 2394.64 1329.36 2434.26 1354.94 2442.55 1408.8 2424.21 1440.93 2405.86 1473.05 2331.45 1510.43 2284.58 1522.11 2237.71 1533.79 2174.45 1524.62 2142.98 1511.01 2111.52 1497.4 2088.8 1468.43 2096.05 1431.17Z" fill="#007635" fill-rule="evenodd"/><path d="M2091.99 1444.16C2108.75 1436.28 2102.1 1483.18 2125.59 1495.97 2149.08 1508.76 2193.82 1522.18 2232.93 1520.88 2272.04 1519.58 2350.31 1475.98 2360.25 1488.16 2370.19 1500.35 2330.73 1573.98 2292.58 1593.98 2254.43 1613.98 2175.94 1616.62 2131.35 1608.17 2086.76 1599.71 2033.29 1568.95 2025.03 1543.23 2016.77 1517.52 2075.23 1452.04 2091.99 1444.16Z" fill="#00642D" fill-rule="evenodd"/><path d="M2262.97 1350.87C2259.5 1355.02 2259.4 1368.14 2263.39 1370.48 2267.38 1372.81 2283.43 1369.03 2286.9 1364.88 2290.37 1360.74 2287.69 1348.38 2284.21 1345.59 2280.74 1342.8 2266.44 1346.72 2262.97 1350.87Z" stroke="#000000" stroke-width="4.58333" stroke-linecap="round" stroke-linejoin="round" stroke-miterlimit="10" fill="none" fill-rule="evenodd"/><path d="M2242.96 1373.33C2216.47 1385.22 2189.97 1397.11 2178.01 1413.62 2166.04 1430.14 2168.61 1451.28 2171.17 1472.42" stroke="#000000" stroke-width="4.58333" stroke-linecap="round" stroke-linejoin="round" stroke-miterlimit="10" fill="none" fill-rule="evenodd"/><path d="M2308.25 1376.95C2319.56 1386.84 2330.87 1396.74 2334.88 1410.25 2338.89 1423.77 2335.59 1440.91 2332.29 1458.05" stroke="#000000" stroke-width="4.58333" stroke-linecap="round" stroke-linejoin="round" stroke-miterlimit="10" fill="none" fill-rule="evenodd"/><path d="M2297.22 1331.05C2303.52 1325.74 2309.82 1320.42 2323.83 1322.71 2337.84 1325 2371.09 1338.1 2381.28 1344.78 2391.47 1351.45 2388.21 1357.12 2384.95 1362.78" stroke="#000000" stroke-width="4.58333" stroke-linecap="round" stroke-linejoin="round" stroke-miterlimit="10" fill="none" fill-rule="evenodd"/><path d="M2251.67 1336.25C2239.23 1325.16 2226.79 1314.07 2214.8 1312.47 2202.82 1310.86 2191.29 1318.74 2179.75 1326.61" stroke="#000000" stroke-width="4.58333" stroke-linecap="round" stroke-linejoin="round" stroke-miterlimit="10" fill="none" fill-rule="evenodd"/><path d="M0 6.29788C-1.60362e-15 9.7761 5.35741 12.5958 11.9661 12.5958 18.5748 12.5958 23.9322 9.7761 23.9322 6.29788L23.9322 18.8939C23.9322 22.3721 18.5748 25.1917 11.9661 25.1917 5.35741 25.1917-1.60362e-15 22.3721 0 18.8939Z" fill-rule="evenodd" transform="matrix(0.996875 -0.0790008 -0.0790008 -0.996875 2049.63 1794.17)"/><path d="M0 6.29788C-1.60362e-15 2.81966 5.35741-1.60362e-15 11.9661-1.60362e-15 18.5748-2.40543e-15 23.9322 2.81966 23.9322 6.29788 23.9322 9.7761 18.5748 12.5958 11.9661 12.5958 5.35741 12.5958-9.62174e-15 9.7761 0 6.29788Z" fill="#666666" fill-rule="evenodd" transform="matrix(0.996875 -0.0790008 -0.0790008 -0.996875 2049.63 1794.17)"/><path d="M23.9322 6.29788C23.9322 9.7761 18.5748 12.5958 11.9661 12.5958 5.35741 12.5958-1.60362e-15 9.7761 0 6.29788-1.60362e-15 2.81966 5.35741-1.60362e-15 11.9661-1.60362e-15 18.5748-2.40543e-15 23.9322 2.81966 23.9322 6.29788L23.9322 18.8939C23.9322 22.3721 18.5748 25.1917 11.9661 25.1917 5.35741 25.1917-1.60362e-15 22.3721 0 18.8939L0 6.29788" stroke="#000000" stroke-width="4.58333" stroke-linecap="round" stroke-linejoin="round" stroke-miterlimit="10" fill="none" fill-rule="evenodd" transform="matrix(0.996875 -0.0790008 -0.0790008 -0.996875 2049.63 1794.17)"/><path d="M2069.65 1842.21C2069.58 1838.25 2063.43 1835.16 2055.91 1835.29 2048.39 1835.42 2042.36 1838.74 2042.43 1842.69L2042.09 1823.49C2042.02 1819.53 2048.05 1816.22 2055.57 1816.08 2063.08 1815.95 2069.23 1819.05 2069.3 1823Z" fill-rule="evenodd"/><path d="M2069.65 1842.21C2069.72 1846.17 2063.68 1849.48 2056.16 1849.61 2048.65 1849.75 2042.5 1846.65 2042.43 1842.69 2042.36 1838.74 2048.39 1835.42 2055.91 1835.29 2063.43 1835.16 2069.58 1838.25 2069.65 1842.21Z" fill="#666666" fill-rule="evenodd"/><path d="M2042.43 1842.69C2042.36 1838.74 2048.39 1835.42 2055.91 1835.29 2063.43 1835.16 2069.58 1838.25 2069.65 1842.21 2069.72 1846.17 2063.68 1849.48 2056.16 1849.61 2048.65 1849.75 2042.5 1846.65 2042.43 1842.69L2042.09 1823.49C2042.02 1819.53 2048.05 1816.22 2055.57 1816.08 2063.08 1815.95 2069.23 1819.05 2069.3 1823L2069.65 1842.21" stroke="#000000" stroke-width="4.58333" stroke-linecap="round" stroke-linejoin="round" stroke-miterlimit="10" fill="none" fill-rule="evenodd"/><rect x="0" y="61.182" width="43.803" height="169.022" fill="#C5E0B4" transform="matrix(-0.535876 -0.844297 -0.844297 0.535876 2266.26 1738.92)"/><path d="M43.803 61.182 104.985 0 104.985 169.022 43.803 230.204Z" fill="#9EB491" fill-rule="evenodd" transform="matrix(-0.535876 -0.844297 -0.844297 0.535876 2266.26 1738.92)"/><path d="M0 61.182 61.1821 0 104.985 0 43.803 61.182Z" fill="#D0E6C3" fill-rule="evenodd" transform="matrix(-0.535876 -0.844297 -0.844297 0.535876 2266.26 1738.92)"/><path d="M0 61.182 61.1821 0 104.985 0 104.985 169.022 43.803 230.204 0 230.204ZM0 61.182 43.803 61.182 104.985 0M43.803 61.182 43.803 230.204" stroke="#000000" stroke-width="4.58333" stroke-linecap="round" stroke-miterlimit="8" fill="none" fill-rule="evenodd" transform="matrix(-0.535876 -0.844297 -0.844297 0.535876 2266.26 1738.92)"/><path d="M0 40.4918C13.134 22.4093 26.2681 4.32681 35.675 0.585606 45.0819-3.1556 55.9086 12.017 56.4411 18.0445 56.9736 24.0721 47.9217 30.4113 38.8698 36.7506" stroke="#000000" stroke-width="4.58333" stroke-linecap="round" stroke-linejoin="round" stroke-miterlimit="10" fill="#C5E0B4" fill-rule="evenodd" transform="matrix(0.0970583 -0.995279 -0.995279 -0.0970583 2246.71 1733.42)"/><path d="M2304.5 1663.5C2285.28 1664.46 2266.07 1665.41 2254.97 1669.81 2243.86 1674.21 2239.59 1684.43 2237.89 1689.88 2236.18 1695.33 2240.45 1698.92 2244.72 1702.5" stroke="#000000" stroke-width="9.16667" stroke-linecap="round" stroke-linejoin="round" stroke-miterlimit="10" fill="none" fill-rule="evenodd"/><text font-family="Malgun Gothic,Malgun Gothic_MSFontService,sans-serif" font-weight="700" font-size="83" transform="matrix(0.952613 -0.304184 0.304184 0.952613 1652.22 1119)">왠지</text><text font-family="Malgun Gothic,Malgun Gothic_MSFontService,sans-serif" font-weight="700" font-size="83" transform="matrix(0.952613 -0.304184 0.304184 0.952613 1837.24 1060)">국기를</text><text font-family="Malgun Gothic,Malgun Gothic_MSFontService,sans-serif" font-weight="700" font-size="83" transform="matrix(0.952613 -0.304184 0.304184 0.952613 2100.84 976)">누르면</text><text font-family="Malgun Gothic,Malgun Gothic_MSFontService,sans-serif" font-weight="700" font-size="83" transform="matrix(0.952613 -0.304184 0.304184 0.952613 1610.76 1289)">데이터가</text><text font-family="Malgun Gothic,Malgun Gothic_MSFontService,sans-serif" font-weight="700" font-size="83" transform="matrix(0.952613 -0.304184 0.304184 0.952613 1952.96 1180)">나올것</text><text font-family="Malgun Gothic,Malgun Gothic_MSFontService,sans-serif" font-weight="700" font-size="83" transform="matrix(0.952613 -0.304184 0.304184 0.952613 2216.56 1096)">같은데</text><text font-family="Malgun Gothic,Malgun Gothic_MSFontService,sans-serif" font-weight="700" font-size="83" transform="matrix(0.952613 -0.304184 0.304184 0.952613 2452.33 1020)">?</text></g></svg>