<svg width="1580" height="1427" xmlns="http://www.w3.org/2000/svg" xmlns:xlink="http://www.w3.org/1999/xlink" xml:space="preserve" overflow="hidden"><g transform="translate(-330 -618)"><text font-family="Malgun Gothic,Malgun Gothic_MSFontService,sans-serif" font-weight="700" font-size="96" transform="matrix(1 0 0 1 985.848 854)">금리</text><text font-family="Malgun Gothic,Malgun Gothic_MSFontService,sans-serif" font-weight="700" font-size="83" transform="matrix(1 0 0 1 568.382 1300)">GD</text><text font-family="Malgun Gothic,Malgun Gothic_MSFontService,sans-serif" font-weight="700" font-size="83" transform="matrix(1 0 0 1 689.268 1300)">P</text><text font-family="Malgun Gothic,Malgun Gothic_MSFontService,sans-serif" font-weight="700" font-size="115" transform="matrix(1 0 0 1 1582.78 1588)">환율</text><text font-family="Malgun Gothic,Malgun Gothic_MSFontService,sans-serif" font-weight="700" font-size="60" transform="matrix(1 0 0 1 1422.79 1015)">물가</text><text font-family="Malgun Gothic,Malgun Gothic_MSFontService,sans-serif" font-weight="700" font-size="83" transform="matrix(1 0 0 1 631.834 1591)">중앙은행</text><text font-family="Malgun Gothic,Malgun Gothic_MSFontService,sans-serif" font-weight="700" font-size="83" transform="matrix(1 0 0 1 1105.45 1409)">실물경제</text><text font-family="Malgun Gothic,Malgun Gothic_MSFontService,sans-serif" font-weight="700" font-size="55" transform="matrix(1 0 0 1 432.166 1009)">금융경제</text><text font-family="Malgun Gothic,Malgun Gothic_MSFontService,sans-serif" font-weight="700" font-size="69" transform="matrix(1 0 0 1 1568.38 728)">유로화</text><text font-family="Malgun Gothic,Malgun Gothic_MSFontService,sans-serif" font-weight="700" font-size="83" transform="matrix(1 0 0 1 1570.12 1269)">기업</text><text font-family="Malgun Gothic,Malgun Gothic_MSFontService,sans-serif" font-weight="700" font-size="83" transform="matrix(1 0 0 1 1138.19 1794)">정부</text><text font-family="Malgun Gothic,Malgun Gothic_MSFontService,sans-serif" font-weight="700" font-size="55" transform="matrix(1 0 0 1 911.3 1167)">시중은행</text><text font-family="Malgun Gothic,Malgun Gothic_MSFontService,sans-serif" font-weight="700" font-size="64" transform="matrix(1 0 0 1 1375.86 1986)">위안화</text><text font-family="Malgun Gothic,Malgun Gothic_MSFontService,sans-serif" font-weight="700" font-size="73" transform="matrix(1 0 0 1 511.57 1877)">달러</text></g></svg>