<svg width="625" height="722" xmlns="http://www.w3.org/2000/svg" xmlns:xlink="http://www.w3.org/1999/xlink" xml:space="preserve" overflow="hidden"><g transform="translate(-1732 -1038)"><path d="M1982.4 1699.18C1918.01 1629.25 1922.1 1520.73 1991.54 1456.78 2038.36 1413.66 2080.63 1365.59 2118.34 1312.58 2151.94 1368.77 2190.45 1420.44 2233.87 1467.59 2298.26 1537.51 2294.17 1646.04 2224.73 1709.99 2155.29 1773.94 2046.8 1769.1 1982.4 1699.18Z" stroke="#000000" stroke-width="9.16667" stroke-linecap="round" stroke-linejoin="round" stroke-miterlimit="10" stroke-opacity="0" fill="#FF0000" fill-rule="evenodd" fill-opacity="0.701961"/><path d="M2023.13 1689.74C1979.59 1642.46 1982.36 1569.09 2029.3 1525.85 2057.64 1499.75 2085.97 1473.66 2114.31 1447.56 2140.59 1476.09 2166.87 1504.63 2193.14 1533.16 2236.68 1580.43 2233.92 1653.81 2186.97 1697.05 2140.02 1740.28 2066.67 1737.01 2023.13 1689.74Z" stroke="#000000" stroke-width="9.16667" stroke-linecap="round" stroke-linejoin="round" stroke-miterlimit="10" stroke-opacity="0" fill="#FF6600" fill-rule="evenodd" fill-opacity="0.701961"/><path d="M1988.65 1522.83C1960.54 1500.07 1955.09 1460.21 1976.48 1433.8 1992 1414.62 2004.09 1392.66 2012.72 1367.9 2027.89 1390.9 2045.68 1410.67 2066.09 1427.19 2094.2 1449.95 2099.65 1489.81 2078.27 1516.22 2056.88 1542.63 2016.76 1545.59 1988.65 1522.83Z" stroke="#000000" stroke-width="9.16667" stroke-linecap="round" stroke-linejoin="round" stroke-miterlimit="10" stroke-opacity="0" fill="#FF0000" fill-rule="evenodd" fill-opacity="0.4"/><path d="M2155.04 1532.25C2134.61 1503.02 2140.96 1463.32 2169.22 1443.58 2189.73 1429.25 2207.74 1411.34 2223.25 1389.84 2231.16 1415.91 2242.52 1439.56 2257.35 1460.79 2277.77 1490.02 2271.42 1529.72 2243.17 1549.45 2214.92 1569.19 2175.46 1561.49 2155.04 1532.25Z" stroke="#000000" stroke-width="9.16667" stroke-linecap="round" stroke-linejoin="round" stroke-miterlimit="10" stroke-opacity="0" fill="#FF0000" fill-rule="evenodd" fill-opacity="0.4"/><path d="M2063.29 1674.74C2040.32 1649.79 2041.78 1611.08 2066.54 1588.27 2081.49 1574.5 2096.44 1560.73 2111.39 1546.97 2125.26 1562.02 2139.12 1577.07 2152.98 1592.13 2175.95 1617.07 2174.5 1655.78 2149.73 1678.59 2124.96 1701.4 2086.26 1699.68 2063.29 1674.74Z" stroke="#000000" stroke-width="9.16667" stroke-linecap="round" stroke-linejoin="round" stroke-miterlimit="10" stroke-opacity="0" fill="#EFDF4D" fill-rule="evenodd" fill-opacity="0.501961"/><path d="M2152.52 1342.44C2144.17 1330.58 2142.9 1317.09 2149.69 1312.3 2154.07 1309.22 2158.1 1305.66 2161.79 1301.6 2166.62 1309.64 2171.72 1317.48 2177.11 1325.12 2185.46 1336.99 2186.72 1350.48 2179.93 1355.26 2173.14 1360.04 2160.87 1354.3 2152.52 1342.44Z" fill="#FF0000" fill-rule="evenodd" fill-opacity="0.501961"/><path d="M2058.01 1348.14C2054.07 1345.89 2057.82 1331.91 2066.39 1316.91 2071.17 1308.53 2076.13 1300.26 2081.27 1292.09 2084.25 1291.99 2086.83 1292.56 2089.03 1293.82 2092.97 1296.07 2089.22 1310.06 2080.66 1325.06 2072.09 1340.06 2061.95 1350.39 2058.01 1348.14Z" fill="#FF0000" fill-rule="evenodd" fill-opacity="0.501961"/><path d="M1958.92 1618.67C1922.77 1587.01 1906.92 1545.99 1923.5 1527.06 1936.02 1512.77 1943.08 1493.71 1944.68 1469.87 1966.95 1499.47 1991.72 1526.22 2018.99 1550.1 2055.13 1581.77 2070.99 1622.79 2054.4 1641.72 2037.81 1660.66 1995.06 1650.34 1958.92 1618.67Z" fill="#FF0000" fill-rule="evenodd" fill-opacity="0.501961"/><path d="M2192.95 1654.58C2177.62 1636.33 2190.19 1600.57 2221 1574.69 2244.25 1555.17 2265.19 1532.89 2283.81 1507.86 2286.07 1529.44 2292.98 1547.11 2304.54 1560.87 2319.86 1579.11 2307.29 1614.88 2276.48 1640.76 2245.67 1666.63 2208.27 1672.82 2192.95 1654.58Z" fill="#FF0000" fill-rule="evenodd" fill-opacity="0.501961"/><path d="M2005.5 1497.5C2005.5 1438.41 2053.41 1390.5 2112.5 1390.5 2171.59 1390.5 2219.5 1438.41 2219.5 1497.5 2219.5 1556.59 2171.59 1604.5 2112.5 1604.5 2053.41 1604.5 2005.5 1556.59 2005.5 1497.5Z" stroke="#000000" stroke-width="9.16667" stroke-linecap="round" stroke-linejoin="round" stroke-miterlimit="10" fill="#A9D18E" fill-rule="evenodd"/><path d="M2101.55 1666.31C2097.9 1670.25 2084.14 1680.36 2079.63 1689.94 2075.12 1699.52 2075.33 1718.16 2074.47 1723.81" stroke="#000000" stroke-width="9.16667" stroke-linecap="round" stroke-linejoin="round" stroke-miterlimit="10" fill="none" fill-rule="evenodd"/><path d="M2101.75 1609.16C2101.75 1618.32 2096.63 1649.85 2101.75 1664.11 2106.87 1678.38 2126.02 1684.79 2132.48 1694.73 2138.94 1704.68 2139.16 1718.94 2140.5 1723.78" stroke="#000000" stroke-width="9.16667" stroke-linecap="round" stroke-linejoin="round" stroke-miterlimit="10" fill="none" fill-rule="evenodd"/><path d="M2102.26 1631.63C2109.16 1635.77 2134.6 1657.89 2143.64 1656.48 2152.68 1655.06 2154.37 1628.69 2156.52 1623.13" stroke="#000000" stroke-width="9.16667" stroke-linecap="round" stroke-linejoin="round" stroke-miterlimit="10" fill="none" fill-rule="evenodd"/><path d="M2099.6 1632.52C2094.75 1636.51 2078.54 1657.36 2070.51 1656.47 2062.49 1655.58 2054.61 1632.08 2051.43 1627.2" stroke="#000000" stroke-width="9.16667" stroke-linecap="round" stroke-linejoin="round" stroke-miterlimit="10" fill="none" fill-rule="evenodd"/><path d="M2090 1502C2090 1496.48 2092.91 1492 2096.5 1492 2100.09 1492 2103 1496.48 2103 1502 2103 1507.52 2100.09 1512 2096.5 1512 2092.91 1512 2090 1507.52 2090 1502Z" fill-rule="evenodd"/><path d="M2147 1500.5C2147 1495.25 2149.91 1491 2153.5 1491 2157.09 1491 2160 1495.25 2160 1500.5 2160 1505.75 2157.09 1510 2153.5 1510 2149.91 1510 2147 1505.75 2147 1500.5Z" fill-rule="evenodd"/><path d="M2118 1535C2118 1533.34 2119.34 1532 2121 1532 2122.66 1532 2124 1533.34 2124 1535 2124 1536.66 2122.66 1538 2121 1538 2119.34 1538 2118 1536.66 2118 1535Z" fill-rule="evenodd"/><path d="M2131 1535C2131 1533.34 2132.34 1532 2134 1532 2135.66 1532 2137 1533.34 2137 1535 2137 1536.66 2135.66 1538 2134 1538 2132.34 1538 2131 1536.66 2131 1535Z" fill-rule="evenodd"/><path d="M2109.5 1480.26C2103.38 1474.7 2097.26 1469.14 2092.09 1469.52 2086.92 1469.89 2082.71 1476.2 2078.5 1482.5" stroke="#000000" stroke-width="6.875" stroke-linecap="round" stroke-linejoin="round" stroke-miterlimit="10" fill="none" fill-rule="evenodd"/><path d="M2101.5 1560.67C2111.01 1567.18 2120.51 1573.69 2128.01 1573.5 2135.51 1573.3 2141.01 1566.4 2146.5 1559.5" stroke="#000000" stroke-width="6.875" stroke-linecap="round" stroke-linejoin="round" stroke-miterlimit="10" fill="none" fill-rule="evenodd"/><path d="M2173.5 1476.43C2167.38 1471.3 2161.26 1466.17 2156.09 1466.52 2150.92 1466.86 2146.71 1472.68 2142.5 1478.5" stroke="#000000" stroke-width="6.875" stroke-linecap="round" stroke-linejoin="round" stroke-miterlimit="10" fill="none" fill-rule="evenodd"/><text font-family="Malgun Gothic,Malgun Gothic_MSFontService,sans-serif" font-weight="700" font-size="46" transform="matrix(0.985754 -0.168195 0.168195 0.985754 1989.41 1170)">예아</text><text font-family="Malgun Gothic,Malgun Gothic_MSFontService,sans-serif" font-weight="700" font-size="46" transform="matrix(0.985754 -0.168195 0.168195 0.985754 2079.77 1154)">!</text><text font-family="Malgun Gothic,Malgun Gothic_MSFontService,sans-serif" font-weight="700" font-size="46" transform="matrix(0.985754 -0.168195 0.168195 0.985754 1875.01 1273)">돈으로부터</text><text font-family="Malgun Gothic,Malgun Gothic_MSFontService,sans-serif" font-weight="700" font-size="46" transform="matrix(0.985754 -0.168195 0.168195 0.985754 2116.72 1231)">독립</text><text font-family="Malgun Gothic,Malgun Gothic_MSFontService,sans-serif" font-weight="700" font-size="46" transform="matrix(0.985754 -0.168195 0.168195 0.985754 2207.08 1216)">!!</text></g></svg>