<svg width="2174" height="1954" xmlns="http://www.w3.org/2000/svg" xmlns:xlink="http://www.w3.org/1999/xlink" xml:space="preserve" overflow="hidden"><g transform="translate(-1440 -294)"><path d="M2070 2017C2070 1965.09 2378.03 1923 2758 1923 3137.97 1923 3446 1965.09 3446 2017 3446 2068.91 3137.97 2111 2758 2111 2378.03 2111 2070 2068.91 2070 2017Z" fill="#E2F0D9" fill-rule="evenodd"/><path d="M2922.33 1883.15 2938.57 2035.19 2721.82 2058.34 2705.58 1906.31Z" fill="#548235" fill-rule="evenodd"/><path d="M2938.57 2035.19 2955.68 2048.99 2738.93 2072.15 2721.82 2058.34Z" fill="#44692B" fill-rule="evenodd"/><path d="M2922.33 1883.15 2939.44 1896.96 2955.68 2048.99 2938.57 2035.19Z" fill="#769B5D" fill-rule="evenodd"/><path d="M2922.33 1883.15 2939.44 1896.96 2955.68 2048.99 2738.93 2072.15 2721.82 2058.34 2705.58 1906.31ZM2922.33 1883.15 2938.57 2035.19 2955.68 2048.99M2938.57 2035.19 2721.82 2058.34" stroke="#000000" stroke-width="4.58333" stroke-linecap="round" stroke-miterlimit="8" fill="none" fill-rule="evenodd"/><path d="M2894.32 1902.35C2897.31 1902.03 2899.98 1904.19 2900.3 1907.17L2912.1 2017.61C2912.42 2020.59 2910.26 2023.27 2907.28 2023.59L2885.68 2025.89C2882.7 2026.21 2880.02 2024.05 2879.7 2021.07L2867.9 1910.64C2867.58 1907.65 2869.74 1904.98 2872.72 1904.66Z" stroke="#000000" stroke-width="4.58333" stroke-linecap="round" stroke-linejoin="round" stroke-miterlimit="10" fill="#E2F0D9" fill-rule="evenodd"/><path d="M2847.39 1906.04C2849.71 1905.79 2851.8 1907.47 2852.05 1909.8L2854 1928.12C2854.25 1930.44 2852.57 1932.53 2850.25 1932.78L2833.41 1934.58C2831.09 1934.82 2829 1933.14 2828.75 1930.82L2826.79 1912.5C2826.55 1910.17 2828.23 1908.09 2830.55 1907.84Z" stroke="#000000" stroke-width="4.58333" stroke-linecap="round" stroke-linejoin="round" stroke-miterlimit="10" fill="#A9D18E" fill-rule="evenodd"/><path d="M2851.21 1937.26C2853.54 1937.01 2855.62 1938.69 2855.87 1941.02L2857.83 1959.34C2858.08 1961.66 2856.39 1963.75 2854.07 1964L2837.24 1965.79C2834.91 1966.04 2832.82 1964.36 2832.58 1962.04L2830.62 1943.72C2830.37 1941.39 2832.05 1939.31 2834.38 1939.06Z" stroke="#000000" stroke-width="4.58333" stroke-linecap="round" stroke-linejoin="round" stroke-miterlimit="10" fill="#A9D18E" fill-rule="evenodd"/><path d="M2854.04 1969.63C2856.36 1969.38 2858.45 1971.06 2858.7 1973.39L2860.65 1991.71C2860.9 1994.03 2859.22 1996.12 2856.9 1996.37L2840.06 1998.16C2837.74 1998.41 2835.65 1996.73 2835.4 1994.4L2833.44 1976.08C2833.2 1973.76 2834.88 1971.67 2837.2 1971.43Z" stroke="#000000" stroke-width="4.58333" stroke-linecap="round" stroke-linejoin="round" stroke-miterlimit="10" fill="#00B050" fill-rule="evenodd"/><path d="M2858.11 2001.8C2860.43 2001.55 2862.52 2003.23 2862.77 2005.56L2864.72 2023.88C2864.97 2026.2 2863.29 2028.29 2860.97 2028.53L2844.13 2030.33C2841.81 2030.58 2839.72 2028.9 2839.47 2026.57L2837.51 2008.25C2837.27 2005.93 2838.95 2003.84 2841.27 2003.6Z" stroke="#000000" stroke-width="4.58333" stroke-linecap="round" stroke-linejoin="round" stroke-miterlimit="10" fill="#00B050" fill-rule="evenodd"/><path d="M2812.93 1911.05C2815.25 1910.8 2817.34 1912.48 2817.59 1914.81L2819.54 1933.13C2819.79 1935.45 2818.11 1937.54 2815.78 1937.79L2798.95 1939.58C2796.62 1939.83 2794.54 1938.15 2794.29 1935.83L2792.33 1917.51C2792.08 1915.18 2793.77 1913.1 2796.09 1912.85Z" stroke="#000000" stroke-width="4.58333" stroke-linecap="round" stroke-linejoin="round" stroke-miterlimit="10" fill="#00B050" fill-rule="evenodd"/><path d="M2816.75 1942.27C2819.08 1942.02 2821.16 1943.7 2821.41 1946.03L2823.37 1964.35C2823.62 1966.67 2821.93 1968.76 2819.61 1969.01L2802.77 1970.8C2800.45 1971.05 2798.36 1969.37 2798.11 1967.04L2796.16 1948.72C2795.91 1946.4 2797.59 1944.31 2799.92 1944.07Z" stroke="#000000" stroke-width="4.58333" stroke-linecap="round" stroke-linejoin="round" stroke-miterlimit="10" fill="#00B050" fill-rule="evenodd"/><path d="M2819.58 1974.64C2821.9 1974.39 2823.99 1976.07 2824.24 1978.4L2826.19 1996.72C2826.44 1999.04 2824.76 2001.13 2822.43 2001.37L2805.6 2003.17C2803.27 2003.42 2801.19 2001.74 2800.94 1999.41L2798.98 1981.09C2798.73 1978.77 2800.42 1976.68 2802.74 1976.44Z" stroke="#000000" stroke-width="4.58333" stroke-linecap="round" stroke-linejoin="round" stroke-miterlimit="10" fill="#00B050" fill-rule="evenodd"/><path d="M2823.65 2006.81C2825.97 2006.56 2828.06 2008.24 2828.31 2010.57L2830.26 2028.89C2830.51 2031.21 2828.83 2033.3 2826.5 2033.54L2809.67 2035.34C2807.34 2035.59 2805.26 2033.91 2805.01 2031.58L2803.05 2013.26C2802.8 2010.94 2804.49 2008.85 2806.81 2008.6Z" stroke="#000000" stroke-width="4.58333" stroke-linecap="round" stroke-linejoin="round" stroke-miterlimit="10" fill="#00B050" fill-rule="evenodd"/><path d="M2778.16 1914.76C2780.48 1914.51 2782.57 1916.19 2782.82 1918.52L2784.77 1936.84C2785.02 1939.16 2783.34 1941.25 2781.02 1941.49L2764.18 1943.29C2761.86 1943.54 2759.77 1941.86 2759.52 1939.53L2757.57 1921.21C2757.32 1918.89 2759 1916.8 2761.32 1916.56Z" stroke="#000000" stroke-width="4.58333" stroke-linecap="round" stroke-linejoin="round" stroke-miterlimit="10" fill="#00B050" fill-rule="evenodd"/><path d="M2781.98 1945.98C2784.31 1945.73 2786.39 1947.41 2786.64 1949.74L2788.6 1968.06C2788.85 1970.38 2787.17 1972.47 2784.84 1972.71L2768.01 1974.51C2765.68 1974.76 2763.6 1973.08 2763.35 1970.75L2761.39 1952.43C2761.14 1950.11 2762.82 1948.02 2765.15 1947.78Z" stroke="#000000" stroke-width="4.58333" stroke-linecap="round" stroke-linejoin="round" stroke-miterlimit="10" fill="#00B050" fill-rule="evenodd"/><path d="M2784.81 1978.35C2787.13 1978.1 2789.22 1979.78 2789.47 1982.11L2791.43 2000.43C2791.67 2002.75 2789.99 2004.84 2787.67 2005.08L2770.83 2006.88C2768.51 2007.13 2766.42 2005.45 2766.17 2003.12L2764.22 1984.8C2763.97 1982.48 2765.65 1980.39 2767.97 1980.15Z" stroke="#000000" stroke-width="4.58333" stroke-linecap="round" stroke-linejoin="round" stroke-miterlimit="10" fill="#00B050" fill-rule="evenodd"/><path d="M2788.63 2010.54C2791.09 2010.28 2793.3 2012.06 2793.56 2014.52L2795.47 2032.35C2795.73 2034.81 2793.95 2037.02 2791.49 2037.28L2741.11 2042.66C2738.65 2042.93 2736.44 2041.14 2736.18 2038.68L2734.27 2020.86C2734.01 2018.4 2735.79 2016.19 2738.25 2015.92Z" stroke="#000000" stroke-width="4.58333" stroke-linecap="round" stroke-linejoin="round" stroke-miterlimit="10" fill="#00B050" fill-rule="evenodd"/><path d="M2744.24 1919.5C2746.56 1919.25 2748.65 1920.93 2748.9 1923.26L2750.86 1941.58C2751.1 1943.9 2749.42 1945.99 2747.1 1946.24L2730.26 1948.04C2727.94 1948.28 2725.85 1946.6 2725.6 1944.28L2723.65 1925.96C2723.4 1923.63 2725.08 1921.55 2727.4 1921.3Z" stroke="#000000" stroke-width="4.58333" stroke-linecap="round" stroke-linejoin="round" stroke-miterlimit="10" fill="#00B050" fill-rule="evenodd"/><path d="M2748.06 1950.72C2750.39 1950.47 2752.47 1952.15 2752.72 1954.48L2754.68 1972.8C2754.93 1975.12 2753.25 1977.21 2750.92 1977.46L2734.09 1979.26C2731.76 1979.5 2729.68 1977.82 2729.43 1975.5L2727.47 1957.18C2727.22 1954.85 2728.91 1952.77 2731.23 1952.52Z" stroke="#000000" stroke-width="4.58333" stroke-linecap="round" stroke-linejoin="round" stroke-miterlimit="10" fill="#00B050" fill-rule="evenodd"/><path d="M2750.89 1983.09C2753.21 1982.84 2755.3 1984.52 2755.55 1986.85L2757.51 2005.17C2757.75 2007.49 2756.07 2009.58 2753.75 2009.83L2736.91 2011.62C2734.59 2011.87 2732.5 2010.19 2732.25 2007.87L2730.3 1989.55C2730.05 1987.22 2731.73 1985.14 2734.06 1984.89Z" stroke="#000000" stroke-width="4.58333" stroke-linecap="round" stroke-linejoin="round" stroke-miterlimit="10" fill="#00B050" fill-rule="evenodd"/><path d="M2582.48 1852.61C2584.05 1857.4 2574.92 1876.55 2591.95 1881.34 2608.97 1886.13 2653.73 1874.66 2684.62 1881.34 2715.52 1888.02 2759.37 1916.08 2777.3 1921.43 2795.23 1926.77 2797.14 1920.43 2792.18 1913.41 2787.22 1906.4 2763.77 1890.69 2747.54 1879.34 2731.3 1867.98 2714.61 1851.61 2694.77 1845.26 2674.93 1838.91 2646.52 1840.03 2628.48 1841.25 2610.44 1842.48 2594.54 1848.38 2586.54 1852.61 2578.53 1856.84 2581.46 1864.3 2580.45 1866.64" stroke="#000000" stroke-width="4.58333" stroke-linecap="round" stroke-linejoin="round" stroke-miterlimit="10" fill="#A9D18E" fill-rule="evenodd"/><path d="M2682.4 1857.45C2686.9 1858.33 2698.94 1859.21 2709.39 1862.72 2719.85 1866.23 2739.2 1875.9 2745.16 1878.53" stroke="#000000" stroke-width="4.58333" stroke-linecap="round" stroke-linejoin="round" stroke-miterlimit="10" fill="none" fill-rule="evenodd"/><path d="M2698.14 1871.61C2706.21 1875.15 2733.44 1885.9 2746.52 1892.8 2759.6 1899.7 2769.16 1908.42 2776.63 1913.02 2784.1 1917.61 2788.91 1919.13 2791.36 1920.35" stroke="#000000" stroke-width="4.58333" stroke-linecap="round" stroke-linejoin="round" stroke-miterlimit="10" fill="none" fill-rule="evenodd"/><path d="M2479.81 1822.47C2491.77 1829.65 2534.07 1855.9 2551.55 1865.55 2569.04 1875.2 2578.06 1882.26 2584.72 1880.36 2591.37 1878.45 2598.7 1863.3 2591.48 1854.11 2584.26 1844.91 2553.47 1833.46 2541.4 1825.16 2529.33 1816.86 2526.28 1808.78 2519.06 1804.3 2511.84 1799.81 2504.51 1795.55 2498.08 1798.24 2491.65 1800.93 2483.42 1816.75 2479.81 1822.47Z" stroke="#000000" stroke-width="4.58333" stroke-linecap="round" stroke-linejoin="round" stroke-miterlimit="10" fill="#A9D18E" fill-rule="evenodd"/><path d="M2485.9 1804.31C2488.26 1804.87 2494.35 1804.88 2500.06 1807.68 2505.77 1810.48 2516.8 1818.86 2520.15 1821.1" stroke="#000000" stroke-width="4.58333" stroke-linecap="round" stroke-linejoin="round" stroke-miterlimit="10" fill="none" fill-rule="evenodd"/><path d="M2488.05 1809.81C2490.12 1811.6 2496.11 1817.41 2500.48 1820.57 2504.85 1823.74 2511.99 1827.45 2514.29 1828.82" stroke="#000000" stroke-width="4.58333" stroke-linecap="round" stroke-linejoin="round" stroke-miterlimit="10" fill="none" fill-rule="evenodd"/><path d="M2560.18 1868.97C2562.82 1866.28 2569.9 1855.97 2576.04 1852.86 2582.17 1849.74 2591.89 1846.09 2597.01 1850.28 2602.12 1854.47 2610.13 1872.73 2606.72 1877.99 2603.31 1883.25 2584.22 1883.14 2576.55 1881.86 2568.88 1880.57 2563.34 1872.19 2560.18 1868.97Z" stroke="#000000" stroke-width="4.58333" stroke-linecap="round" stroke-linejoin="round" stroke-miterlimit="10" fill="#385723" fill-rule="evenodd"/><path d="M2381.17 1791.71C2397.56 1790.12 2448.57 1773.28 2479.48 1782.18 2510.4 1791.08 2548.97 1837.01 2566.65 1845.09 2584.34 1853.17 2570.06 1859.84 2585.59 1830.66 2601.11 1801.48 2660.62 1707.23 2659.79 1670.02 2658.97 1632.8 2613.28 1617.1 2580.65 1607.36 2548.02 1597.61 2487.72 1607.56 2464.03 1611.55 2440.34 1615.55 2448.62 1616.21 2438.5 1631.32 2428.38 1646.42 2413.54 1674.97 2403.3 1702.2 2393.06 1729.44 2381.43 1779.32 2381.17 1791.71Z" stroke="#000000" stroke-width="4.58333" stroke-linecap="round" stroke-linejoin="round" stroke-miterlimit="10" fill="#E2F0D9" fill-rule="evenodd"/><path d="M2580.49 1850.39C2598.33 1848.85 2653.84 1832.15 2687.54 1841.14 2721.23 1850.12 2763.37 1896.17 2782.65 1904.3 2801.93 1912.44 2786.41 1919.06 2803.24 1889.93 2820.06 1860.79 2884.6 1766.7 2883.6 1729.48 2882.59 1692.25 2832.78 1676.42 2797.22 1666.58 2761.66 1656.75 2696.02 1666.53 2670.22 1670.45 2644.43 1674.38 2653.45 1675.06 2642.47 1690.14 2631.49 1705.22 2615.42 1733.73 2604.34 1760.94 2593.27 1788.15 2580.74 1838 2580.49 1850.39Z" stroke="#000000" stroke-width="4.58333" stroke-linecap="round" stroke-linejoin="round" stroke-miterlimit="10" fill="#E2F0D9" fill-rule="evenodd"/><path d="M2675.54 1721.73C2686.71 1719.21 2721.11 1704.1 2742.58 1706.61 2764.04 1709.13 2792.54 1729.53 2804.34 1736.84 2816.14 1744.14 2811.88 1748.17 2813.38 1750.44" stroke="#000000" stroke-width="4.58333" stroke-linecap="round" stroke-linejoin="round" stroke-miterlimit="10" fill="none" fill-rule="evenodd"/><path d="M2659.2 1758.89C2669.16 1758.26 2696.03 1749.94 2718.98 1755.11 2741.93 1760.27 2782.41 1782.94 2796.92 1789.86 2811.42 1796.79 2804.48 1795.53 2806 1796.66" stroke="#000000" stroke-width="4.58333" stroke-linecap="round" stroke-linejoin="round" stroke-miterlimit="10" fill="none" fill-rule="evenodd"/><path d="M2647.11 1805.66C2658.38 1805.66 2697.08 1802.67 2714.74 1805.66 2732.4 1808.64 2746.68 1820.57 2753.06 1823.55" stroke="#000000" stroke-width="4.58333" stroke-linecap="round" stroke-linejoin="round" stroke-miterlimit="10" fill="none" fill-rule="evenodd"/><path d="M2613.56 1684.27C2612.65 1682.09 2610.57 1674.32 2608.1 1671.17 2605.63 1668.02 2600.3 1666.32 2598.74 1665.35" stroke="#000000" stroke-width="4.58333" stroke-linecap="round" stroke-linejoin="round" stroke-miterlimit="10" fill="none" fill-rule="evenodd"/><path d="M2588.58 1728.14C2586.81 1725.06 2582.39 1713.11 2577.97 1709.66 2573.55 1706.21 2564.71 1707.81 2562.06 1707.44" stroke="#000000" stroke-width="4.58333" stroke-linecap="round" stroke-linejoin="round" stroke-miterlimit="10" fill="none" fill-rule="evenodd"/><path d="M2569.37 1777.49C2568.77 1774.23 2568.17 1762.85 2565.77 1757.97 2563.37 1753.09 2556.78 1749.83 2554.98 1748.21" stroke="#000000" stroke-width="4.58333" stroke-linecap="round" stroke-linejoin="round" stroke-miterlimit="10" fill="none" fill-rule="evenodd"/><path d="M2337.78 1950.51C2364.82 1945.55 2462.92 1939.3 2500.06 1920.73 2537.2 1902.16 2550.55 1852.71 2560.65 1839.11" stroke="#000000" stroke-width="9.16667" stroke-linecap="round" stroke-linejoin="round" stroke-miterlimit="10" fill="none" fill-rule="evenodd"/><path d="M2339.65 1887.86C2340.43 1912.37 2334.22 2007.61 2344.31 2034.91 2354.4 2062.22 2369.53 2060.66 2400.2 2051.67 2430.86 2042.67 2499.17 1989.62 2528.27 1980.93 2557.38 1972.24 2567.09 1996.44 2574.85 1999.55" stroke="#000000" stroke-width="9.16667" stroke-linecap="round" stroke-linejoin="round" stroke-miterlimit="10" fill="none" fill-rule="evenodd"/><path d="M2357.5 2045.5C2368.58 2011.54 2379.67 1977.58 2412.48 1972.89 2445.29 1968.2 2545.2 2006.97 2554.37 2017.35 2563.53 2027.72 2515.5 2031.42 2467.46 2035.13" stroke="#000000" stroke-width="9.16667" stroke-linecap="round" stroke-linejoin="round" stroke-miterlimit="10" fill="none" fill-rule="evenodd"/><path d="M2081.5 1627C2081.5 1483.68 2197.68 1367.5 2341 1367.5 2484.32 1367.5 2600.5 1483.68 2600.5 1627 2600.5 1770.32 2484.32 1886.5 2341 1886.5 2197.68 1886.5 2081.5 1770.32 2081.5 1627Z" stroke="#000000" stroke-width="9.16667" stroke-linecap="round" stroke-linejoin="round" stroke-miterlimit="10" fill="#A9D18E" fill-rule="evenodd"/><path d="M3030.5 1953.5C3035.18 1967.97 3039.86 1982.44 3045.68 1988.23 3051.5 1994.01 3060.95 1993.84 3065.42 1988.23 3069.89 1982.62 3071.19 1968.59 3072.5 1954.57" stroke="#000000" stroke-width="4.58333" stroke-linecap="round" stroke-linejoin="round" stroke-miterlimit="10" fill="#FF9999" fill-rule="evenodd"/><path d="M2991.42 1840.54C2992.19 1826.21 2992.96 1811.87 2998.16 1809.98 3003.36 1808.1 3018.99 1824.67 3022.62 1829.23" stroke="#000000" stroke-width="4.58333" stroke-linecap="round" stroke-linejoin="round" stroke-miterlimit="10" fill="#FF9999" fill-rule="evenodd"/><path d="M3009.84 1867.94C3044.28 1842.08 3078.73 1816.22 3110.22 1808.48 3141.71 1800.75 3179.14 1805.03 3198.78 1821.52 3218.42 1838.02 3232.2 1884.1 3228.05 1907.44 3223.9 1930.79 3199.65 1951.73 3173.89 1961.6 3148.13 1971.47 3100.41 1980.63 3073.48 1966.66 3046.55 1952.69 3029.43 1915.23 3012.31 1877.77" stroke="#000000" stroke-width="4.58333" stroke-linecap="round" stroke-linejoin="round" stroke-miterlimit="10" fill="#FF9999" fill-rule="evenodd"/><path d="M3080.5 1965.5C3085.18 1979.97 3089.86 1994.44 3095.68 2000.23 3101.5 2006.01 3110.95 2005.84 3115.42 2000.23 3119.89 1994.62 3121.19 1980.59 3122.5 1966.57" stroke="#000000" stroke-width="4.58333" stroke-linecap="round" stroke-linejoin="round" stroke-miterlimit="10" fill="#FF9999" fill-rule="evenodd"/><path d="M3159.5 1968.84C3161.88 1981.1 3164.26 1993.37 3169.66 1996.53 3175.06 1999.7 3187.98 1994.65 3191.9 1987.81 3195.82 1980.98 3194.49 1968.24 3193.17 1955.5" stroke="#000000" stroke-width="4.58333" stroke-linecap="round" stroke-linejoin="round" stroke-miterlimit="10" fill="#FF9999" fill-rule="evenodd"/><path d="M3188.5 1817.5C3194.36 1809.18 3200.22 1800.85 3206.18 1799.71 3212.13 1798.56 3223.54 1807.8 3224.23 1810.63 3224.92 1813.46 3211.95 1819.45 3210.32 1816.69 3208.69 1813.93 3211.26 1797.69 3214.45 1794.05 3217.65 1790.41 3226.62 1794.25 3229.5 1794.86" stroke="#000000" stroke-width="4.58333" stroke-linecap="round" stroke-linejoin="round" stroke-miterlimit="10" fill="none" fill-rule="evenodd"/><path d="M3045.14 1816.57C3029.59 1815.79 3010.31 1821.63 2997.71 1831.39 2985.12 1841.16 2970.4 1856.94 2969.57 1875.14 2968.73 1893.34 2975.8 1926.61 2992.7 1940.59 3009.6 1954.57 3051.7 1961.44 3070.97 1959.03 3090.25 1956.62 3100.99 1940.47 3108.38 1926.12 3115.77 1911.78 3118.21 1887.98 3115.32 1872.97 3112.42 1857.97 3102.66 1845.37 3091.02 1836.09 3079.39 1826.81 3060.69 1817.35 3045.14 1816.57Z" stroke="#000000" stroke-width="4.58333" stroke-linecap="round" stroke-linejoin="round" stroke-miterlimit="10" fill="#FF9999" fill-rule="evenodd"/><path d="M2995.5 1919C2995.5 1904.92 3011.62 1893.5 3031.5 1893.5 3051.38 1893.5 3067.5 1904.92 3067.5 1919 3067.5 1933.08 3051.38 1944.5 3031.5 1944.5 3011.62 1944.5 2995.5 1933.08 2995.5 1919Z" stroke="#000000" stroke-width="4.58333" stroke-linecap="round" stroke-linejoin="round" stroke-miterlimit="10" fill="#FF9999" fill-rule="evenodd"/><path d="M3008.5 1920.5C3008.5 1914.42 3012.08 1909.5 3016.5 1909.5 3020.92 1909.5 3024.5 1914.42 3024.5 1920.5 3024.5 1926.58 3020.92 1931.5 3016.5 1931.5 3012.08 1931.5 3008.5 1926.58 3008.5 1920.5Z" stroke="#000000" stroke-width="4.58333" stroke-linecap="round" stroke-linejoin="round" stroke-miterlimit="10" fill-rule="evenodd"/><path d="M3031.5 1920.5C3031.5 1914.42 3035.08 1909.5 3039.5 1909.5 3043.92 1909.5 3047.5 1914.42 3047.5 1920.5 3047.5 1926.58 3043.92 1931.5 3039.5 1931.5 3035.08 1931.5 3031.5 1926.58 3031.5 1920.5Z" stroke="#000000" stroke-width="4.58333" stroke-linecap="round" stroke-linejoin="round" stroke-miterlimit="10" fill-rule="evenodd"/><path d="M3073.03 1834.52C3085.04 1826.65 3097.05 1818.77 3101.65 1821.85 3106.25 1824.92 3102.15 1847.33 3100.63 1852.96" stroke="#000000" stroke-width="4.58333" stroke-linecap="round" stroke-linejoin="round" stroke-miterlimit="10" fill="#FF9999" fill-rule="evenodd"/><path d="M2989.5 1873.5 3017.5 1869.5" stroke="#000000" stroke-width="4.58333" stroke-linecap="round" stroke-linejoin="round" stroke-miterlimit="10" fill="none" fill-rule="evenodd"/><path d="M3047.5 1871.5 3075.5 1879.5" stroke="#000000" stroke-width="4.58333" stroke-linecap="round" stroke-linejoin="round" stroke-miterlimit="10" fill="none" fill-rule="evenodd"/><path d="M3120.5 1824.5C3126.68 1821.7 3132.86 1818.89 3139.53 1817.92 3146.2 1816.96 3153.35 1817.83 3160.5 1818.7" stroke="#000000" stroke-width="4.58333" stroke-linecap="round" stroke-linejoin="round" stroke-miterlimit="10" fill="none" fill-rule="evenodd"/><path d="M2333.5 1946.5C2313.08 1948.44 2292.66 1950.39 2289.09 1957.39 2285.52 1964.39 2298.79 1976.44 2312.06 1988.5" stroke="#000000" stroke-width="9.16667" stroke-linecap="round" stroke-linejoin="round" stroke-miterlimit="10" fill="none" fill-rule="evenodd"/><path d="M1804 2159.3C2294.9 2200.19 2785.79 2241.08 3076.41 2238.87 3367.02 2236.66 3459.84 2268.33 3547.67 2146.04 3635.49 2023.74 3598.36 1708.41 3603.36 1505.08 3608.36 1301.74 3606.22 995.253 3577.66 926" stroke="#000000" stroke-width="13.75" stroke-linecap="round" stroke-linejoin="round" stroke-miterlimit="10" fill="none" fill-rule="evenodd"/><path d="M3576 928.288C3245.8 613.92 2915.6 299.553 2563.6 301.005 2211.6 302.457 1837.8 619.728 1464 937" stroke="#000000" stroke-width="13.75" stroke-linecap="round" stroke-linejoin="round" stroke-miterlimit="10" fill="none" fill-rule="evenodd"/><path d="M1458.67 945C1448.56 1360.03 1438.45 1775.06 1458.67 1980.73 1478.9 2186.41 1556.7 2196.82 1580 2179.06" stroke="#000000" stroke-width="13.75" stroke-linecap="round" stroke-linejoin="round" stroke-miterlimit="10" fill="none" fill-rule="evenodd"/><path d="M1577 2183C1593.28 2178.69 1609.56 2174.38 1616.96 2040.7 1624.36 1907.03 1594.76 1503.13 1621.4 1380.95 1648.04 1258.78 1747.2 1179 1776.8 1307.65 1806.4 1436.29 1745.72 1980.33 1799 2152.82" stroke="#000000" stroke-width="13.75" stroke-linecap="round" stroke-linejoin="round" stroke-miterlimit="10" fill="none" fill-rule="evenodd"/><path d="M1597.27 1015.32C1930.41 1065.87 2263.55 1116.42 2573.08 1105.13 2882.61 1093.84 3168.52 1020.71 3454.44 947.582" stroke="#000000" stroke-width="13.75" stroke-linecap="round" stroke-linejoin="round" stroke-miterlimit="10" fill="none" fill-rule="evenodd"/></g></svg>