<svg width="2430" height="1806" xmlns="http://www.w3.org/2000/svg" xmlns:xlink="http://www.w3.org/1999/xlink" xml:space="preserve" overflow="hidden"><g transform="translate(-480 -345)"><rect x="487" y="468" width="1961" height="1379" stroke="#000000" stroke-width="13.75" stroke-linecap="round" stroke-linejoin="round" stroke-miterlimit="10" fill="#156F54"/><rect x="487" y="1736" width="1961" height="111" stroke="#000000" stroke-width="13.75" stroke-linecap="round" stroke-linejoin="round" stroke-miterlimit="10" fill="#B27110"/><path d="M788 1736.5 613 1736.5C595.051 1736.5 580.5 1721.95 580.5 1704L580.5 1671.5 820.5 1671.5 820.5 1704C820.5 1721.95 805.949 1736.5 788 1736.5Z" stroke="#000000" stroke-width="9.16667" stroke-linecap="round" stroke-linejoin="round" stroke-miterlimit="10" fill="#6110B2" fill-rule="evenodd"/><rect x="580" y="1657" width="240" height="32" stroke="#000000" stroke-width="13.75" stroke-linecap="round" stroke-linejoin="round" stroke-miterlimit="10" fill="#FFFFFF"/><path d="M584.5 1709.5 691.076 1709.5" stroke="#000000" stroke-width="6.875" stroke-linecap="round" stroke-linejoin="round" stroke-miterlimit="10" fill="none" fill-rule="evenodd"/><path d="M594.5 1722.5 663.986 1722.5" stroke="#000000" stroke-width="6.875" stroke-linecap="round" stroke-linejoin="round" stroke-miterlimit="10" fill="none" fill-rule="evenodd"/><path d="M896 1722 1010.08 1722" stroke="#FFFFFF" stroke-width="18.3333" stroke-linecap="round" stroke-linejoin="round" stroke-miterlimit="10" fill="none" fill-rule="evenodd"/><path d="M1110 1722 1224.08 1722" stroke="#FFD700" stroke-width="18.3333" stroke-linecap="round" stroke-linejoin="round" stroke-miterlimit="10" fill="none" fill-rule="evenodd"/><path d="M1295 1722 1409.08 1722" stroke="#FF0000" stroke-width="18.3333" stroke-linecap="round" stroke-linejoin="round" stroke-miterlimit="10" fill="none" fill-rule="evenodd"/><path d="M1099.58 1846.03C1135.11 1840.86 1233.11 1815.57 1312.76 1815 1392.42 1814.43 1533.4 1837.98 1577.53 1842.58" stroke="#806B00" stroke-width="13.75" stroke-linecap="round" stroke-linejoin="round" stroke-miterlimit="10" fill="none" fill-rule="evenodd"/><path d="M989.72 1842.96C1029.24 1834.11 1142.63 1798.69 1226.82 1789.84 1311.01 1780.98 1416.97 1780.46 1494.85 1789.84 1572.74 1799.21 1660.94 1836.71 1694.16 1846.08" stroke="#806B00" stroke-width="13.75" stroke-linecap="round" stroke-linejoin="round" stroke-miterlimit="10" fill="none" fill-rule="evenodd"/><path d="M892.805 1846.08C942.658 1831.5 1123.16 1776.99 1191.92 1758.64 1260.69 1740.29 1286.47 1739.75 1305.38 1735.97" stroke="#806B00" stroke-width="13.75" stroke-linecap="round" stroke-linejoin="round" stroke-miterlimit="10" fill="none" fill-rule="evenodd"/><path d="M1535.92 1735.88C1565.78 1747.27 1677.2 1785.44 1715.11 1804.24 1753.02 1823.04 1755.31 1841.27 1763.35 1848.67" stroke="#806B00" stroke-width="13.75" stroke-linecap="round" stroke-linejoin="round" stroke-miterlimit="10" fill="none" fill-rule="evenodd"/><rect x="487" y="1735" width="1961" height="111" stroke="#000000" stroke-width="13.75" stroke-linecap="round" stroke-linejoin="round" stroke-miterlimit="10" fill="none"/><path d="M2362.29 1743.67C2372.92 1750.19 2401.07 1779.38 2426.06 1782.79 2451.06 1786.19 2497.88 1767.2 2512.24 1764.08" stroke="#9C3B00" stroke-width="13.75" stroke-linecap="round" stroke-linejoin="round" stroke-miterlimit="10" fill="none" fill-rule="evenodd"/><path d="M2302.5 1745.5C2311.65 1753.48 2331.1 1781.11 2357.41 1793.36 2383.73 1805.61 2434.64 1817.86 2460.38 1819 2486.13 1820.14 2503.29 1803.33 2511.87 1800.2" stroke="#9C3B00" stroke-width="13.75" stroke-linecap="round" stroke-linejoin="round" stroke-miterlimit="10" fill="none" fill-rule="evenodd"/><path d="M1630.98 1928.56C1380.52 1656.61 1396.43 1234.51 1666.5 985.787 1848.6 818.076 2013 631.13 2159.67 424.951 2290.35 643.503 2440.12 844.463 2609 1027.83 2859.45 1299.78 2843.55 1721.87 2573.48 1970.6 2303.4 2219.33 1881.43 2200.5 1630.98 1928.56Z" stroke="#000000" stroke-width="9.16667" stroke-linecap="round" stroke-linejoin="round" stroke-miterlimit="10" stroke-opacity="0" fill="#FF0000" fill-rule="evenodd" fill-opacity="0.701961"/><path d="M1789.37 1891.84C1620.03 1707.97 1630.79 1422.6 1813.38 1254.43 1923.59 1152.94 2033.8 1051.44 2144.01 949.942 2246.21 1060.91 2348.41 1171.89 2450.61 1282.86 2619.94 1466.72 2609.19 1752.1 2426.59 1920.27 2244 2088.43 1958.7 2075.71 1789.37 1891.84Z" stroke="#000000" stroke-width="9.16667" stroke-linecap="round" stroke-linejoin="round" stroke-miterlimit="10" stroke-opacity="0" fill="#FF6600" fill-rule="evenodd" fill-opacity="0.701961"/><path d="M1655.28 1284.99C1545.95 1196.47 1524.75 1041.44 1607.92 938.732 1668.32 864.148 1715.31 778.713 1748.9 682.425 1807.89 771.889 1877.08 848.761 1956.46 913.041 2065.78 1001.56 2086.98 1156.59 2003.81 1259.3 1920.64 1362.01 1764.6 1373.51 1655.28 1284.99Z" stroke="#000000" stroke-width="9.16667" stroke-linecap="round" stroke-linejoin="round" stroke-miterlimit="10" stroke-opacity="0" fill="#FF0000" fill-rule="evenodd" fill-opacity="0.4"/><path d="M2302.4 1274.26C2222.97 1160.56 2247.67 1006.16 2357.55 929.398 2437.35 873.661 2507.4 803.984 2567.72 720.368 2598.45 821.754 2642.66 913.73 2700.33 996.297 2779.76 1110 2755.06 1264.4 2645.18 1341.16 2535.29 1417.92 2381.82 1387.97 2302.4 1274.26Z" stroke="#000000" stroke-width="9.16667" stroke-linecap="round" stroke-linejoin="round" stroke-miterlimit="10" stroke-opacity="0" fill="#FF0000" fill-rule="evenodd" fill-opacity="0.4"/><path d="M1945.56 1833.5C1856.22 1736.49 1861.89 1585.93 1958.23 1497.21 2016.37 1443.66 2074.51 1390.11 2132.66 1336.56 2186.58 1395.11 2240.5 1453.66 2294.42 1512.2 2383.76 1609.21 2378.09 1759.77 2281.75 1848.49 2185.41 1937.22 2034.89 1930.5 1945.56 1833.5Z" stroke="#000000" stroke-width="9.16667" stroke-linecap="round" stroke-linejoin="round" stroke-miterlimit="10" stroke-opacity="0" fill="#EFDF4D" fill-rule="evenodd" fill-opacity="0.501961"/><path d="M2292.6 541.073C2260.13 494.944 2255.21 442.476 2281.61 423.883 2298.63 411.9 2314.32 398.027 2328.68 382.264 2347.45 413.519 2367.3 444.012 2388.24 473.744 2420.71 519.874 2425.63 572.341 2399.23 590.934 2372.82 609.527 2325.08 587.203 2292.6 541.073Z" fill="#FF0000" fill-rule="evenodd" fill-opacity="0.501961"/><path d="M1925.03 563.273C1909.7 554.521 1924.29 500.129 1957.61 441.785 1976.21 409.218 1995.51 377.047 2015.49 345.274 2027.07 344.868 2037.14 347.108 2045.69 351.993 2061.02 360.746 2046.43 415.138 2013.11 473.482 1979.79 531.825 1940.36 572.026 1925.03 563.273Z" fill="#FF0000" fill-rule="evenodd" fill-opacity="0.501961"/><path d="M1539.63 1615.46C1399.04 1492.3 1337.38 1332.77 1401.89 1259.12 1450.56 1203.56 1478.02 1129.42 1484.27 1036.69 1570.86 1151.83 1667.19 1255.85 1773.25 1348.76 1913.84 1471.92 1975.5 1631.46 1910.99 1705.1 1846.47 1778.75 1680.21 1738.61 1539.63 1615.46Z" fill="#FF0000" fill-rule="evenodd" fill-opacity="0.501961"/><path d="M2449.84 1755.1C2390.26 1684.14 2439.11 1545.03 2558.96 1444.39 2649.38 1368.46 2730.81 1281.82 2803.25 1184.48 2812.03 1268.39 2838.9 1337.1 2883.86 1390.64 2943.44 1461.59 2894.59 1600.7 2774.74 1701.34 2654.89 1801.99 2509.43 1826.05 2449.84 1755.1Z" fill="#FF0000" fill-rule="evenodd" fill-opacity="0.501961"/><path d="M2106.05 1729.45C2077.03 1725.14 1971.21 1715.61 1931.91 1703.59 1892.62 1691.56 1880.55 1665.02 1870.27 1657.31" stroke="#000000" stroke-width="22.9167" stroke-linecap="round" stroke-linejoin="round" stroke-miterlimit="10" fill="none" fill-rule="evenodd"/><path d="M2106.03 1729.39C2121.88 1734.71 2175.8 1759.19 2201.11 1761.27 2226.41 1763.35 2248.39 1745.1 2257.84 1741.87" stroke="#000000" stroke-width="22.9167" stroke-linecap="round" stroke-linejoin="round" stroke-miterlimit="10" fill="none" fill-rule="evenodd"/><path d="M2099.41 1682.87C2100.18 1708.14 2094.53 1800.74 2104.03 1834.51 2113.53 1868.28 2143.83 1866.45 2156.41 1885.52 2168.99 1904.59 2175.67 1938.36 2179.52 1948.93" stroke="#000000" stroke-width="22.9167" stroke-linecap="round" stroke-linejoin="round" stroke-miterlimit="10" fill="none" fill-rule="evenodd"/><path d="M2101.48 1821.08C2097.25 1831.8 2079.28 1861.91 2076.1 1885.4 2072.93 1908.89 2081.39 1949.26 2082.45 1962.04" stroke="#000000" stroke-width="22.9167" stroke-linecap="round" stroke-linejoin="round" stroke-miterlimit="10" fill="none" fill-rule="evenodd"/><path d="M1776.5 1311.5C1776.5 1115.99 1934.99 957.5 2130.5 957.5 2326.01 957.5 2484.5 1115.99 2484.5 1311.5 2484.5 1507.01 2326.01 1665.5 2130.5 1665.5 1934.99 1665.5 1776.5 1507.01 1776.5 1311.5Z" stroke="#000000" stroke-width="22.9167" stroke-linecap="round" stroke-linejoin="round" stroke-miterlimit="10" fill="#A9D18E" fill-rule="evenodd"/><path d="M2048 1558C2048 1532.59 2060.54 1512 2076 1512 2091.46 1512 2104 1532.59 2104 1558 2104 1583.41 2091.46 1604 2076 1604 2060.54 1604 2048 1583.41 2048 1558Z" stroke="#000000" stroke-width="13.75" stroke-linecap="round" stroke-linejoin="round" stroke-miterlimit="10" fill="#FFFFFF" fill-rule="evenodd"/><path d="M1728.5 1621.5 1870.04 1656.8" stroke="#FFFFFF" stroke-width="22.9167" stroke-linecap="round" stroke-linejoin="round" stroke-miterlimit="10" fill="none" fill-rule="evenodd"/><path d="M2055.64 1446.85 1885.92 1420.05 1836.52 1352.14 1845.78 1293.48 2074.16 1329.54Z" fill-rule="evenodd"/><path d="M1879.49 1348.37 1899.94 1351.6 1897.18 1369.07 1876.74 1365.84Z" fill="#FFFFFF" fill-rule="evenodd"/><path d="M1897.18 1369.07 1917.62 1372.3 1914.86 1389.77 1894.42 1386.55Z" fill="#FFFFFF" fill-rule="evenodd"/><path d="M1913.14 1389.5 1933.58 1392.73 1930.83 1410.2 1910.38 1406.98Z" fill="#FFFFFF" fill-rule="evenodd"/><path d="M0 0 172.116 0 234.2 62.0846 234.2 124.169 0 124.169Z" fill-rule="evenodd" transform="matrix(0.987766 0.155943 0.155943 -0.987766 2112.4 1453.32)"/><path d="M2154.57 1386.09 2181.21 1390.3 2178.32 1408.56 2151.68 1404.36Z" fill="#FFFFFF" fill-rule="evenodd"/><path d="M2178.32 1408.57 2204.96 1412.77 2202.08 1431.04 2175.44 1426.83Z" fill="#FFFFFF" fill-rule="evenodd"/><path d="M2199.84 1430.69 2226.48 1434.89 2223.6 1453.16 2196.96 1448.96Z" fill="#FFFFFF" fill-rule="evenodd"/><path d="M2050 1363 2142.81 1375.77" stroke="#000000" stroke-width="27.5" stroke-linecap="round" stroke-linejoin="round" stroke-miterlimit="10" fill="none" fill-rule="evenodd"/><path d="M0 0 134.152 66.1213" stroke="#000000" stroke-width="22.9167" stroke-linecap="round" stroke-linejoin="round" stroke-miterlimit="10" fill="none" fill-rule="evenodd" transform="matrix(1 0 0 -1 2335.5 1401.62)"/><path d="M1850.21 1328.24 1784.5 1267.5" stroke="#000000" stroke-width="22.9167" stroke-linecap="round" stroke-linejoin="round" stroke-miterlimit="10" fill="none" fill-rule="evenodd"/></g></svg>