<svg width="3223" height="1855" xmlns="http://www.w3.org/2000/svg" xmlns:xlink="http://www.w3.org/1999/xlink" xml:space="preserve" overflow="hidden"><defs><clipPath id="clip0"><rect x="743" y="245" width="3223" height="1855"/></clipPath></defs><g clip-path="url(#clip0)" transform="translate(-743 -245)"><rect x="743" y="245" width="3223" height="1855" fill="#BFEEFC"/><path d="M2312.7 1888.92 2358.63 1889.98 2421.66 1767.43C2421.74 1767.43 2422.66 1767.43 2422.73 1767.43L2399.23 1721.61 2312.7 1888.92Z" fill="#30B210" fill-rule="evenodd"/><path d="M2116.21 1537.9 1901.08 1624.21 1910.66 1741.41 2055.51 1715.84 2135.38 1790.43 2221.65 1693.47 2116.21 1537.9Z" fill="#30B210" fill-rule="evenodd"/><path d="M2072.76 1167.34 2179.77 1070.34 2153.25 999.018 2072.76 1167.34Z" fill="#30B210" fill-rule="evenodd"/><path d="M2052.6 1468.37 2178.69 1527.1 2173.24 1486.33 2052.6 1468.37Z" fill="#30B210" fill-rule="evenodd"/><path d="M1957 1318.7 1958.33 1384.58 1991.62 1385.94C1991.66 1385.94 1992.24 1385.94 1992.28 1385.94L1959 1319.38" fill="#30B210" fill-rule="evenodd"/><path d="M1938.35 1478.49C1938.35 1478.49 1938.35 1478.49 1938.35 1478.49L1967.65 1445.55 1962.2 1507.32 1938.35 1478.49Z" fill="#30B210" fill-rule="evenodd"/><path d="M1872.3 1443.54C1872.34 1443.54 1872.93 1443.54 1872.97 1443.54L1887.15 1469.3 1919.57 1469.98 1939.15 1406.24 1872.3 1443.54Z" fill="#30B210" fill-rule="evenodd"/><path d="M1750.68 1424.84 1910.7 1511.33 1839.2 1529.86C1839.16 1529.86 1838.57 1529.86 1838.52 1529.86L1750.68 1425.53" fill="#30B210" fill-rule="evenodd"/><path d="M940.996 853.772 950.993 982.865 991.647 953.586 940.996 853.772Z" fill="#30B210" fill-rule="evenodd"/><path d="M873.671 950.855 914.734 971.135C914.778 971.09 915.352 970.504 915.396 970.459L927.318 932.603 873.671 950.855Z" fill="#30B210" fill-rule="evenodd"/><path d="M1020.67 840.8 1169.79 634.905 1308.26 725.428 1844.4 441.435 1917.18 562.132 2503.02 725.428 2101.81 874.524 2108.91 956.172 2032.58 1064.44 2007.72 1176.27 1936.71 1085.74 1958.01 1199.34 1853.27 1280.99 1828.42 1387.49 1713.03 1254.37 1615.39 1385.71 1539.05 1243.72 1372.17 1195.79 1443.18 1280.99 1349.09 1341.34 1258.56 1206.44 1269.21 1130.12 1173.34 1114.14 1095.23 1052.02 1109.43 1142.54 1029.55 1052.02 967.411 1133.67 910.602 1140.77 907.052 1069.77 970.962 1052.02 970.962 1002.32 1045.52 934.873 1169.79 925.998 1176.89 739.628 1095.23 870.974 1020.67 840.8Z" fill="#30B210" fill-rule="evenodd"/><path d="M1015.82 1140.74 850 1262.96C850.08 1262.96 851.13 1262.96 851.21 1262.96L908.099 1416.65 1060.61 1425.12 1128.39 1740.97 1211.91 1738.55C1211.99 1738.55 1213.04 1738.55 1213.12 1738.55L1295.43 1495.31 1389.84 1363.41 1325.69 1385.19 1236.12 1207.3C1236.12 1207.22 1236.12 1206.17 1236.12 1206.09L1017.04 1141.95" fill="#30B210" fill-rule="evenodd"/><path d="M3431.79 1352.16 3337.36 1477.31 3427.8 1587.82 3415.83 1952.63 3712.43 1498.62 3431.79 1352.16Z" fill="#30B210" fill-rule="evenodd"/><path d="M3468.79 438.92 3589.51 628.936 3630.34 786.987 3802.53 646.695 3848.69 405.179 3468.79 438.92Z" fill="#30B210" fill-rule="evenodd"/><path d="M2692.64 606.561 2673.13 846.382 2825.67 830.394 3024.32 1009.82 3027.87 1159.04 3164.45 1302.93 3363.1 1375.76 3301.02 1274.51 3235.4 1269.18 3237.17 1199.9 3354.24 1191.01 3538.7 968.957 3434.05 794.865 3341.82 899.676 3256.68 848.159 3336.5 768.218 3483.72 757.56 3371.97 547.938 3013.68 507.08 2912.58 649.196 2701.51 606.561C2701.51 606.443 2701.51 604.903 2692.64 606.561Z" fill="#30B210" fill-rule="evenodd"/></g></svg>