<?xml version="1.0" encoding="UTF-8"?>
<svg xmlns="http://www.w3.org/2000/svg" xmlns:xlink="http://www.w3.org/1999/xlink" width="300px" height="158px" viewBox="0 0 300 158" version="1.1">
<g id="surface1">
<path style=" stroke:none;fill-rule:nonzero;fill:rgb(8.627451%,39.215686%,22.352941%);fill-opacity:1;" d="M 0.980469 151.199219 L 7.949219 142.902344 L 14.898438 134.65625 L 21.847656 126.515625 L 28.753906 118.542969 L 32.214844 114.628906 L 35.632812 110.789062 L 39.058594 107.011719 L 42.453125 103.316406 L 45.851562 99.707031 L 49.21875 96.1875 L 52.570312 92.765625 L 55.910156 89.449219 L 59.230469 86.25 L 62.511719 83.171875 L 65.804688 80.207031 L 69.046875 77.398438 L 72.277344 74.71875 L 75.484375 72.1875 L 78.65625 69.824219 L 81.820312 67.609375 L 84.953125 65.574219 L 88.070312 63.710938 L 91.175781 62.03125 L 94.246094 60.550781 L 97.316406 59.273438 L 100.335938 58.214844 L 103.378906 57.371094 L 106.402344 56.773438 L 108.078125 56.574219 L 109.726562 56.519531 L 111.378906 56.605469 L 113.011719 56.832031 L 114.589844 57.191406 L 116.136719 57.671875 L 117.617188 58.25 L 119.101562 58.972656 L 120.476562 59.738281 L 121.867188 60.640625 L 123.195312 61.609375 L 124.472656 62.640625 L 125.734375 63.765625 L 126.9375 64.917969 L 129.25 67.390625 L 131.519531 70.136719 L 133.703125 73.050781 L 135.8125 76.097656 L 137.878906 79.292969 L 139.886719 82.558594 L 141.875 85.894531 L 145.761719 92.632812 L 149.613281 99.3125 L 151.519531 102.515625 L 153.4375 105.628906 L 155.355469 108.585938 L 157.28125 111.355469 L 159.214844 113.921875 L 161.15625 116.234375 L 162.101562 117.273438 L 163.039062 118.21875 L 164.011719 119.140625 L 164.96875 119.960938 L 165.925781 120.714844 L 166.855469 121.367188 L 167.769531 121.917969 L 168.714844 122.421875 L 169.628906 122.828125 L 170.503906 123.128906 L 171.378906 123.355469 L 172.257812 123.503906 L 173.15625 123.582031 L 174.042969 123.570312 L 174.949219 123.484375 L 175.882812 123.304688 L 178.285156 122.71875 L 180.601562 121.910156 L 183.035156 120.859375 L 185.585938 119.585938 L 188.164062 118.105469 L 190.835938 116.398438 L 193.554688 114.496094 L 196.335938 112.390625 L 199.15625 110.09375 L 202.023438 107.617188 L 204.929688 104.957031 L 207.890625 102.128906 L 210.875 99.140625 L 213.894531 96.007812 L 216.929688 92.722656 L 220.011719 89.308594 L 223.109375 85.761719 L 226.242188 82.09375 L 229.394531 78.3125 L 232.5625 74.429688 L 235.746094 70.453125 L 238.960938 66.382812 L 242.183594 62.242188 L 245.417969 58.023438 L 251.925781 49.390625 L 259.445312 39.226562 C 260.800781 37.394531 263.386719 37.011719 265.21875 38.367188 C 267.050781 39.722656 267.433594 42.308594 266.078125 44.144531 L 258.511719 54.363281 L 251.964844 63.046875 L 248.695312 67.316406 L 245.433594 71.503906 L 242.1875 75.613281 L 238.957031 79.648438 L 235.730469 83.605469 L 232.515625 87.457031 L 229.320312 91.199219 L 226.140625 94.835938 L 222.988281 98.335938 L 219.832031 101.738281 L 216.707031 104.980469 L 213.589844 108.097656 L 210.496094 111.054688 L 207.414062 113.867188 L 204.363281 116.503906 L 201.308594 118.980469 L 198.28125 121.265625 L 195.261719 123.371094 L 192.261719 125.269531 L 189.253906 126.984375 L 186.269531 128.457031 L 183.257812 129.726562 L 180.214844 130.746094 L 177.285156 131.441406 L 175.605469 131.714844 L 173.96875 131.828125 L 172.335938 131.796875 L 170.753906 131.625 L 169.203125 131.320312 L 167.695312 130.894531 L 166.203125 130.339844 L 164.800781 129.691406 L 163.453125 128.953125 L 162.089844 128.109375 L 160.792969 127.183594 L 159.566406 126.203125 L 158.335938 125.132812 L 157.175781 124.027344 L 155.976562 122.808594 L 154.824219 121.53125 L 152.625 118.890625 L 150.507812 116.070312 L 148.429688 113.078125 L 146.40625 109.957031 L 144.429688 106.738281 L 142.464844 103.4375 L 138.617188 96.761719 L 134.785156 90.121094 L 132.855469 86.882812 L 130.945312 83.773438 L 129.027344 80.796875 L 127.085938 77.992188 L 125.148438 75.386719 L 123.210938 73.019531 L 121.222656 70.875 L 120.222656 69.910156 L 119.277344 69.058594 L 118.304688 68.261719 L 117.335938 67.542969 L 116.433594 66.9375 L 115.441406 66.371094 L 114.5625 65.925781 L 113.613281 65.535156 L 112.707031 65.230469 L 111.785156 65 L 110.875 64.847656 L 109.9375 64.773438 L 108.976562 64.785156 L 107.976562 64.878906 L 105.550781 65.339844 L 103.058594 66.007812 L 100.46875 66.90625 L 97.824219 67.992188 L 95.085938 69.304688 L 92.296875 70.804688 L 89.445312 72.496094 L 86.546875 74.378906 L 83.585938 76.445312 L 80.59375 78.675781 L 77.542969 81.074219 L 74.449219 83.640625 L 71.320312 86.347656 L 68.15625 89.195312 L 64.953125 92.199219 L 61.722656 95.304688 L 58.464844 98.542969 L 55.175781 101.898438 L 51.863281 105.359375 L 48.527344 108.910156 L 45.171875 112.558594 L 41.796875 116.28125 L 38.398438 120.097656 L 34.992188 123.953125 L 28.121094 131.878906 L 21.207031 139.976562 L 14.269531 148.214844 L 7.300781 156.511719 C 5.835938 158.257812 3.230469 158.484375 1.488281 157.019531 C -0.257812 155.550781 -0.484375 152.945312 0.980469 151.199219 Z M 250.339844 37.683594 L 274.96875 25.042969 L 270.300781 52.339844 Z M 250.339844 37.683594 "/>
</g>
</svg>
