<svg width="2167" height="1420" xmlns="http://www.w3.org/2000/svg" xmlns:xlink="http://www.w3.org/1999/xlink" xml:space="preserve" overflow="hidden"><defs><clipPath id="clip0"><rect x="845" y="275" width="2167" height="1420"/></clipPath></defs><g clip-path="url(#clip0)" transform="translate(-845 -275)"><path d="M1179.5 1601.04C1179.5 1577.59 1198.51 1558.58 1221.96 1558.58L1221.96 1601.04C1221.96 1589.31 1231.47 1579.81 1243.19 1579.81 1254.92 1579.81 1264.42 1589.31 1264.42 1601.04L1264.42 1558.58 2965.04 1558.58C2988.49 1558.58 3007.5 1539.57 3007.5 1516.12L3007.5 347.962C3007.5 324.511 2988.49 305.5 2965.04 305.5 2941.59 305.5 2922.58 324.511 2922.58 347.962L2922.58 390.423 1221.96 390.423C1198.51 390.423 1179.5 409.434 1179.5 432.885ZM2965.04 1473.65C2941.59 1473.65 2922.58 1492.66 2922.58 1516.12 2922.58 1527.84 2932.08 1537.35 2943.81 1537.35 2955.53 1537.35 2965.04 1527.84 2965.04 1516.12Z" fill="#DFB573" fill-rule="evenodd"/><path d="M2965.04 1473.65C2941.59 1473.65 2922.58 1492.66 2922.58 1516.12 2922.58 1527.84 2932.08 1537.35 2943.81 1537.35 2955.53 1537.35 2965.04 1527.84 2965.04 1516.12ZM1221.96 1558.58C1198.51 1558.58 1179.5 1577.59 1179.5 1601.04 1179.5 1624.49 1198.51 1643.5 1221.96 1643.5 1245.41 1643.5 1264.42 1624.49 1264.42 1601.04 1264.42 1589.31 1254.92 1579.81 1243.19 1579.81 1231.47 1579.81 1221.96 1589.31 1221.96 1601.04Z" fill="#B3925C" fill-rule="evenodd"/><path d="M3007.5 1516.12C3007.5 1539.57 2988.49 1558.58 2965.04 1558.58L1264.42 1558.58 1264.42 1601.04C1264.42 1624.49 1245.41 1643.5 1221.96 1643.5 1198.51 1643.5 1179.5 1624.49 1179.5 1601.04L1179.5 432.885C1179.5 409.434 1198.51 390.423 1221.96 390.423L2922.58 390.423 2922.58 347.962C2922.58 324.511 2941.59 305.5 2965.04 305.5 2988.49 305.5 3007.5 324.511 3007.5 347.962ZM1264.42 1558.58 1221.96 1558.58C1198.51 1558.58 1179.5 1577.59 1179.5 1601.04M1221.96 1558.58 1221.96 1601.04C1221.96 1589.31 1231.47 1579.81 1243.19 1579.81 1254.92 1579.81 1264.42 1589.31 1264.42 1601.04M2965.04 1473.65 2965.04 1516.12C2965.04 1527.84 2955.53 1537.35 2943.81 1537.35 2932.08 1537.35 2922.58 1527.84 2922.58 1516.12 2922.58 1492.66 2941.59 1473.65 2965.04 1473.65 2988.49 1473.65 3007.5 1492.66 3007.5 1516.12M2922.58 1516.12 2922.58 390.423" stroke="#000000" stroke-width="9.16667" stroke-miterlimit="8" fill="none" fill-rule="evenodd"/><path d="M487 55.1666C487 85.6342 462.301 110.333 431.833 110.333L431.833 55.1666C431.833 70.4008 419.484 82.7506 404.249 82.7506 389.015 82.7506 376.665 70.4008 376.665 55.1666L376.665 110.335 55.1667 110.335C24.699 110.335 0 135.034 0 165.501L0 1333.83C0 1364.3 24.699 1389 55.1667 1389 85.6344 1389 110.333 1364.3 110.333 1333.83L110.335 1278.67 431.833 1278.67C462.301 1278.67 487 1253.97 487 1223.5ZM55.1667 220.669C85.6344 220.669 110.333 195.97 110.333 165.503 110.333 150.269 97.9835 137.919 82.7493 137.919 67.515 137.919 55.1652 150.269 55.1652 165.503Z" fill="#DFB573" fill-rule="evenodd" transform="matrix(1 -1.22465e-16 -1.22465e-16 -1 849.5 1668.5)"/><path d="M55.1667 220.669C85.6344 220.669 110.333 195.97 110.333 165.503 110.333 150.269 97.9835 137.919 82.7493 137.919 67.515 137.919 55.1652 150.269 55.1652 165.503ZM431.833 110.335C462.301 110.335 487 85.6357 487 55.1681 487 24.7004 462.301 0.00151903 431.833 0.00151903 401.366 0.00151903 376.667 24.7004 376.667 55.1681 376.667 70.4023 389.017 82.7521 404.251 82.7521 419.485 82.7521 431.835 70.4023 431.835 55.1681Z" fill="#B3925C" fill-rule="evenodd" transform="matrix(1 -1.22465e-16 -1.22465e-16 -1 849.5 1668.5)"/><path d="M0 165.501C-1.10524e-14 135.034 24.699 110.335 55.1667 110.335L376.665 110.335 376.665 55.1666C376.665 24.6989 401.364 0 431.832 0 462.3-1.10524e-14 486.999 24.6989 486.999 55.1666L487 1223.5C487 1253.97 462.301 1278.67 431.833 1278.67L110.335 1278.67 110.335 1333.83C110.335 1364.3 85.6359 1389 55.1682 1389 24.7005 1389 0.00151903 1364.3 0.00151903 1333.83ZM376.665 110.335 431.833 110.335C462.301 110.335 487 85.6357 487 55.1681M431.833 110.335 431.833 55.1666C431.833 70.4008 419.484 82.7506 404.249 82.7506 389.015 82.7506 376.665 70.4008 376.665 55.1666M55.1667 220.669 55.1667 165.501C55.1667 150.267 67.5165 137.917 82.7508 137.917 97.9851 137.917 110.335 150.267 110.335 165.501 110.335 195.969 85.6359 220.668 55.1682 220.668 24.7005 220.668 0.00151903 195.969 0.00151903 165.501M110.335 165.501 110.335 1278.67" stroke="#000000" stroke-width="9.16667" stroke-miterlimit="8" fill="none" fill-rule="evenodd" transform="matrix(1 -1.22465e-16 -1.22465e-16 -1 849.5 1668.5)"/><rect x="1134" y="302" width="228" height="1393" fill="#FFFFFF"/><rect x="1114" y="387" width="290" height="1169" fill="#DFB573"/><path d="M1055.5 389.5 1464.31 389.5" stroke="#000000" stroke-width="9.16667" stroke-linecap="round" stroke-miterlimit="8" fill="none" fill-rule="evenodd"/><path d="M1092.5 1558.5 1523.32 1558.5" stroke="#000000" stroke-width="9.16667" stroke-linecap="round" stroke-miterlimit="8" fill="none" fill-rule="evenodd"/><rect x="1022.5" y="501.5" width="1812" height="1004" stroke="#000000" stroke-width="9.16667" stroke-linecap="round" stroke-linejoin="round" stroke-miterlimit="10" fill="#BFEEFC"/><path d="M1925.82 1401.93 1949.84 1402.49 1982.8 1337.61C1982.84 1337.61 1983.32 1337.61 1983.36 1337.61L1971.07 1313.35 1925.82 1401.93Z" stroke="#000000" stroke-width="9.16667" stroke-linecap="round" stroke-linejoin="round" stroke-miterlimit="10" fill="#30B210" fill-rule="evenodd"/><path d="M1821.81 1217.45 1708.54 1262.82 1713.59 1324.43 1789.84 1310.99 1831.9 1350.2 1877.32 1299.23 1821.81 1217.45Z" stroke="#000000" stroke-width="9.16667" stroke-linecap="round" stroke-linejoin="round" stroke-miterlimit="10" fill="#30B210" fill-rule="evenodd"/><path d="M1798.44 1021.68 1855.38 970.897 1841.27 933.557 1798.44 1021.68Z" stroke="#000000" stroke-width="9.16667" stroke-linecap="round" stroke-linejoin="round" stroke-miterlimit="10" fill="#30B210" fill-rule="evenodd"/><path d="M1788.34 1180.22 1854.34 1211.03 1851.48 1189.64 1788.34 1180.22Z" stroke="#000000" stroke-width="9.16667" stroke-linecap="round" stroke-linejoin="round" stroke-miterlimit="10" fill="#30B210" fill-rule="evenodd"/><path d="M1737.5 1100.81 1738.24 1135.75 1756.73 1136.47C1756.76 1136.47 1757.08 1136.47 1757.1 1136.47L1738.61 1101.17" stroke="#000000" stroke-width="9.16667" stroke-linecap="round" stroke-linejoin="round" stroke-miterlimit="10" fill="#30B210" fill-rule="evenodd"/><path d="M1727.75 1185.32C1727.75 1185.32 1727.75 1185.32 1727.75 1185.32L1743.31 1167.85 1740.42 1200.61 1727.75 1185.32Z" stroke="#000000" stroke-width="9.16667" stroke-linecap="round" stroke-linejoin="round" stroke-miterlimit="10" fill="#30B210" fill-rule="evenodd"/><path d="M1693.2 1167.25C1693.22 1167.25 1693.53 1167.25 1693.56 1167.25L1701.16 1181.12 1718.54 1181.49 1729.04 1147.17 1693.2 1167.25Z" stroke="#000000" stroke-width="9.16667" stroke-linecap="round" stroke-linejoin="round" stroke-miterlimit="10" fill="#30B210" fill-rule="evenodd"/><path d="M1629.33 1157.42 1713.29 1202.72 1675.78 1212.43C1675.76 1212.43 1675.45 1212.43 1675.42 1212.43L1629.33 1157.78" stroke="#000000" stroke-width="9.16667" stroke-linecap="round" stroke-linejoin="round" stroke-miterlimit="10" fill="#30B210" fill-rule="evenodd"/><path d="M1202.5 856.853 1207.79 924.902 1229.31 909.468 1202.5 856.853Z" stroke="#000000" stroke-width="9.16667" stroke-linecap="round" stroke-linejoin="round" stroke-miterlimit="10" fill="#30B210" fill-rule="evenodd"/><path d="M1166.4 907.653 1188.39 918.573C1188.42 918.548 1188.72 918.233 1188.75 918.209L1195.13 897.825 1166.4 907.653Z" stroke="#000000" stroke-width="9.16667" stroke-linecap="round" stroke-linejoin="round" stroke-miterlimit="10" fill="#30B210" fill-rule="evenodd"/><path d="M1244.43 849.365 1323.05 740.77 1396.05 788.515 1678.7 638.729 1717.07 702.388 2025.93 788.515 1814.41 867.152 1818.15 910.215 1777.91 967.321 1764.81 1026.3 1727.37 978.555 1738.6 1038.47 1683.38 1081.53 1670.28 1137.7 1609.44 1067.49 1557.96 1136.77 1517.72 1061.87 1429.74 1036.6 1467.18 1081.53 1417.57 1113.36 1369.84 1042.21 1375.46 1001.96 1324.92 993.534 1283.74 960.768 1291.22 1008.51 1249.11 960.768 1216.35 1003.83 1186.4 1007.58 1184.53 970.13 1218.22 960.768 1218.22 934.555 1257.53 898.981 1323.05 894.301 1326.79 796.004 1283.74 865.28 1244.43 849.365Z" stroke="#000000" stroke-width="9.16667" stroke-linecap="round" stroke-linejoin="round" stroke-miterlimit="10" fill="#30B210" fill-rule="evenodd"/><path d="M1242 1007.36 1154.5 1071.73C1154.54 1071.73 1155.1 1071.73 1155.14 1071.73L1185.16 1152.68 1265.63 1157.14 1301.4 1323.48 1345.47 1322.21C1345.51 1322.21 1346.07 1322.21 1346.11 1322.21L1389.54 1194.1 1439.36 1124.63 1405.51 1136.11 1358.25 1042.42C1358.25 1042.37 1358.25 1041.82 1358.25 1041.78L1242.64 1008" stroke="#000000" stroke-width="9.16667" stroke-linecap="round" stroke-linejoin="round" stroke-miterlimit="10" fill="#30B210" fill-rule="evenodd"/><path d="M2496.42 1123.22 2446.69 1189.19 2494.32 1247.43 2488.01 1439.72 2644.2 1200.42 2496.42 1123.22Z" stroke="#000000" stroke-width="9.16667" stroke-linecap="round" stroke-linejoin="round" stroke-miterlimit="10" fill="#30B210" fill-rule="evenodd"/><path d="M2516.39 642.39 2579.92 742.607 2601.41 825.966 2692.04 751.974 2716.34 624.594 2516.39 642.39Z" stroke="#000000" stroke-width="9.16667" stroke-linecap="round" stroke-linejoin="round" stroke-miterlimit="10" fill="#30B210" fill-rule="evenodd"/><path d="M2106.86 730.913 2096.57 857.163 2177.06 848.747 2281.9 943.201 2283.77 1021.76 2355.84 1097.51 2460.68 1135.85 2427.92 1082.54 2393.28 1079.74 2394.22 1043.27 2456 1038.59 2553.34 921.691 2498.12 830.043 2449.45 885.219 2404.52 858.098 2446.64 816.015 2524.33 810.404 2465.36 700.052 2276.28 678.542 2222.93 753.357 2111.54 730.913C2111.54 730.85 2111.54 730.04 2106.86 730.913Z" stroke="#000000" stroke-width="9.16667" stroke-linecap="round" stroke-linejoin="round" stroke-miterlimit="10" fill="#30B210" fill-rule="evenodd"/><rect x="1108.5" y="422.5" width="455" height="158" stroke="#000000" stroke-width="9.16667" stroke-linecap="round" stroke-linejoin="round" stroke-miterlimit="10" fill="#FFFFFF"/><text font-family="Malgun Gothic,Malgun Gothic_MSFontService,sans-serif" font-weight="700" font-size="92" transform="matrix(1 0 0 1 1152.04 536)">세계지도</text></g></svg>