<svg width="2743" height="1876" xmlns="http://www.w3.org/2000/svg" xmlns:xlink="http://www.w3.org/1999/xlink" xml:space="preserve" overflow="hidden"><g transform="translate(-1061 -373)"><path d="M2448.5 376.5 2448.5 2245.22" stroke="#323232" stroke-width="6.875" stroke-linecap="round" stroke-linejoin="round" stroke-miterlimit="10" fill="none" fill-rule="evenodd"/><path d="M2432 1018.5C2432 1009.39 2439.39 1002 2448.5 1002 2457.61 1002 2465 1009.39 2465 1018.5 2465 1027.61 2457.61 1035 2448.5 1035 2439.39 1035 2432 1027.61 2432 1018.5Z" fill="#003A2B" fill-rule="evenodd"/><path d="M2432 1701.5C2432 1692.39 2439.39 1685 2448.5 1685 2457.61 1685 2465 1692.39 2465 1701.5 2465 1710.61 2457.61 1718 2448.5 1718 2439.39 1718 2432 1710.61 2432 1701.5Z" fill="#003A2B" fill-rule="evenodd"/><text font-family="NanumSquare,NanumSquare_MSFontService,sans-serif" font-weight="700" font-size="55" transform="matrix(1 0 0 1 2728.33 1822)">홈페이지</text><text font-family="NanumSquare,NanumSquare_MSFontService,sans-serif" font-weight="700" font-size="55" transform="matrix(1 0 0 1 2941.46 1822)">1</text><text font-family="NanumSquare,NanumSquare_MSFontService,sans-serif" font-weight="700" font-size="55" transform="matrix(1 0 0 1 2974.69 1822)">차</text><text font-family="NanumSquare,NanumSquare_MSFontService,sans-serif" font-weight="700" font-size="55" transform="matrix(1 0 0 1 3038.28 1822)">완성</text><text font-family="NanumSquare,NanumSquare_MSFontService,sans-serif" font-weight="700" font-size="55" transform="matrix(1 0 0 1 1739.03 1137)">내가</text><text font-family="NanumSquare,NanumSquare_MSFontService,sans-serif" font-weight="700" font-size="55" transform="matrix(1 0 0 1 1852.47 1137)">사는</text><text font-family="NanumSquare,NanumSquare_MSFontService,sans-serif" font-weight="700" font-size="55" transform="matrix(1 0 0 1 1965.91 1137)">세상</text><text font-family="NanumSquare,NanumSquare_MSFontService,sans-serif" font-weight="700" font-size="55" transform="matrix(1 0 0 1 2079.34 1137)">0 </text><text font-family="NanumSquare,NanumSquare_MSFontService,sans-serif" font-weight="700" font-size="55" transform="matrix(1 0 0 1 2126.32 1137)">출판</text><text font-family="NanumSquare,NanumSquare_MSFontService,sans-serif" font-weight="700" font-size="55" transform="matrix(1 0 0 1 1738.99 1574)">내가</text><text font-family="NanumSquare,NanumSquare_MSFontService,sans-serif" font-weight="700" font-size="55" transform="matrix(1 0 0 1 1852.43 1574)">사는</text><text font-family="NanumSquare,NanumSquare_MSFontService,sans-serif" font-weight="700" font-size="55" transform="matrix(1 0 0 1 1965.87 1574)">세상</text><text font-family="NanumSquare,NanumSquare_MSFontService,sans-serif" font-weight="700" font-size="55" transform="matrix(1 0 0 1 2079.31 1574)">1</text><text font-family="NanumSquare,NanumSquare_MSFontService,sans-serif" font-weight="700" font-size="55" transform="matrix(1 0 0 1 2126.28 1574)">출판</text><path d="M2432 1359.5C2432 1350.39 2439.39 1343 2448.5 1343 2457.61 1343 2465 1350.39 2465 1359.5 2465 1368.61 2457.61 1376 2448.5 1376 2439.39 1376 2432 1368.61 2432 1359.5Z" fill="#003A2B" fill-rule="evenodd"/><path d="M2432 676.5C2432 667.387 2439.39 660 2448.5 660 2457.61 660 2465 667.387 2465 676.5 2465 685.613 2457.61 693 2448.5 693 2439.39 693 2432 685.613 2432 676.5Z" fill="#003A2B" fill-rule="evenodd"/><text font-family="NanumSquare,NanumSquare_MSFontService,sans-serif" font-weight="700" font-size="55" transform="matrix(1 0 0 1 2691.7 750)">홈페이지</text><text font-family="NanumSquare,NanumSquare_MSFontService,sans-serif" font-weight="700" font-size="55" transform="matrix(1 0 0 1 2904.83 750)">1</text><text font-family="NanumSquare,NanumSquare_MSFontService,sans-serif" font-weight="700" font-size="55" transform="matrix(1 0 0 1 2938.05 750)">차</text><text font-family="NanumSquare,NanumSquare_MSFontService,sans-serif" font-weight="700" font-size="55" transform="matrix(1 0 0 1 3001.65 750)">개발</text><text font-family="NanumSquare,NanumSquare_MSFontService,sans-serif" font-weight="700" font-size="55" transform="matrix(1 0 0 1 2691.7 893)">홈페이지</text><text font-family="NanumSquare,NanumSquare_MSFontService,sans-serif" font-weight="700" font-size="55" transform="matrix(1 0 0 1 2904.83 893)">2</text><text font-family="NanumSquare,NanumSquare_MSFontService,sans-serif" font-weight="700" font-size="55" transform="matrix(1 0 0 1 2938.05 893)">차</text><text font-family="NanumSquare,NanumSquare_MSFontService,sans-serif" font-weight="700" font-size="55" transform="matrix(1 0 0 1 3001.65 893)">개발</text><text font-family="NanumSquare,NanumSquare_MSFontService,sans-serif" font-weight="400" font-size="55" transform="matrix(1 0 0 1 1094.97 695)">2020</text><text font-family="NanumSquare,NanumSquare_MSFontService,sans-serif" font-weight="400" font-size="55" transform="matrix(1 0 0 1 1094.97 1037)">2021</text><text font-family="NanumSquare,NanumSquare_MSFontService,sans-serif" font-weight="400" font-size="55" transform="matrix(1 0 0 1 1094.97 1379)">2022</text><text font-family="NanumSquare,NanumSquare_MSFontService,sans-serif" font-weight="400" font-size="55" transform="matrix(1 0 0 1 1094.97 1720)">2023</text><text font-family="NanumSquare,NanumSquare_MSFontService,sans-serif" font-weight="400" font-size="55" transform="matrix(1 0 0 1 1094.97 2005)">2024</text><text font-family="NanumSquare,NanumSquare_MSFontService,sans-serif" font-weight="400" font-size="55" transform="matrix(1 0 0 1 3703.13 695)">23</text><text font-family="NanumSquare,NanumSquare_MSFontService,sans-serif" font-weight="400" font-size="55" transform="matrix(1 0 0 1 3703.13 1037)">24</text><text font-family="NanumSquare,NanumSquare_MSFontService,sans-serif" font-weight="400" font-size="55" transform="matrix(1 0 0 1 3703.13 1378)">25</text><text font-family="NanumSquare,NanumSquare_MSFontService,sans-serif" font-weight="400" font-size="55" transform="matrix(1 0 0 1 3703.13 1720)">26</text><text font-family="NanumSquare,NanumSquare_MSFontService,sans-serif" font-weight="400" font-size="55" transform="matrix(1 0 0 1 3704.41 2005)">27</text><path d="M2432 1987.5C2432 1978.39 2439.39 1971 2448.5 1971 2457.61 1971 2465 1978.39 2465 1987.5 2465 1996.61 2457.61 2004 2448.5 2004 2439.39 2004 2432 1996.61 2432 1987.5Z" fill="#003A2B" fill-rule="evenodd"/></g></svg>