<svg width="805" height="582" xmlns="http://www.w3.org/2000/svg" xmlns:xlink="http://www.w3.org/1999/xlink" xml:space="preserve" overflow="hidden"><g transform="translate(-1666 -1473)"><path d="M2452.53 1475.91 2458.87 1512.2 2464.51 1548.05 2466.85 1565.67 2468.74 1582.97 2470.1 1599.91 2470.83 1616.43 2470.85 1632.46 2470.06 1647.95 2468.37 1662.83 2465.68 1677.05 2461.9 1690.55 2456.92 1703.25 2450.64 1715.09 2442.96 1725.99 2433.91 1735.77 2423.64 1744.36 2412.23 1751.86 2399.76 1758.38 2386.3 1764.03 2371.91 1768.92 2356.65 1773.18 2340.58 1776.91 2323.74 1780.22 2306.19 1783.23 2287.99 1786.03 2269.19 1788.74 2249.84 1791.46 2230 1794.3 2209.73 1797.35 2189.07 1800.73 2178.3 1802.42 2166.85 1803.93 2154.86 1805.27 2142.36 1806.44 2129.41 1807.48 2116.04 1808.39 2102.3 1809.19 2088.24 1809.9 2059.34 1811.1 2029.68 1812.14 1999.64 1813.14 1969.58 1814.23 1939.89 1815.55 1910.91 1817.21 1883.04 1819.37 1869.65 1820.66 1856.66 1822.13 1844.14 1823.78 1832.12 1825.63 1820.66 1827.69 1809.81 1829.99 1799.61 1832.53 1790.12 1835.33 1781.38 1838.4 1773.45 1841.75 1766.16 1845.35 1759.32 1849.17 1752.94 1853.17 1747.01 1857.36 1741.51 1861.73 1736.43 1866.26 1731.75 1870.96 1727.45 1875.81 1719.86 1886.06 1713.65 1896.81 1708.64 1908.1 1704.7 1919.89 1701.71 1932.13 1699.56 1944.79 1698.13 1957.81 1697.3 1971.14 1696.96 1984.72 1696.99 1998.49 1697.11 2003.51C1697.16 2005.4 1695.66 2006.98 1693.76 2007.03 1691.86 2007.07 1690.29 2005.57 1690.24 2003.67L1690.12 1998.51 1690.09 1984.55 1690.44 1970.71 1691.29 1957.06 1692.78 1943.64 1695.03 1930.5 1698.18 1917.7 1702.36 1905.3 1707.71 1893.36 1714.34 1881.96 1722.31 1871.25 1726.89 1866.1 1731.86 1861.13 1737.24 1856.34 1743.05 1851.74 1749.29 1847.35 1755.97 1843.16 1763.12 1839.19 1770.78 1835.42 1779.11 1831.92 1788.18 1828.74 1797.95 1825.86 1808.39 1823.27 1819.44 1820.93 1831.07 1818.83 1843.24 1816.96 1855.89 1815.29 1868.99 1813.82 1882.51 1812.51 1910.52 1810.35 1939.58 1808.68 1969.34 1807.36 1999.41 1806.27 2029.44 1805.27 2059.05 1804.24 2087.9 1803.03 2101.9 1802.33 2115.57 1801.53 2128.86 1800.63 2141.72 1799.6 2154.1 1798.44 2165.95 1797.12 2177.23 1795.63 2187.96 1793.94 2208.7 1790.55 2229.03 1787.49 2248.88 1784.65 2268.21 1781.94 2286.95 1779.24 2305.03 1776.45 2322.41 1773.47 2339.02 1770.21 2354.81 1766.55 2369.7 1762.41 2383.64 1757.69 2396.58 1752.28 2408.46 1746.11 2419.24 1739.08 2428.88 1731.09 2437.35 1722.01 2444.57 1711.86 2450.52 1700.73 2455.28 1688.69 2458.93 1675.77 2461.54 1662.05 2463.2 1647.59 2463.98 1632.46 2463.96 1616.73 2463.24 1600.46 2461.9 1583.72 2460.03 1566.57 2457.72 1549.11 2452.1 1513.39 2445.76 1477.09C2445.43 1475.22 2446.68 1473.44 2448.55 1473.11 2450.42 1472.79 2452.2 1474.04 2452.53 1475.91ZM1707.31 1998.68 1694.23 2026.5 1679.82 1999.34Z" fill="#4D4D4D"/><path d="M2310.31 1781.84 2286.35 1787.65 2262.84 1793.73 2240.16 1800.38 2229.29 1804 2218.76 1807.87 2208.63 1812.01 2198.96 1816.47 2189.79 1821.28 2181.18 1826.47 2173.18 1832.06 2165.82 1838.09 2159.16 1844.6 2153.23 1851.61 2148.06 1859.15 2143.57 1867.23 2139.73 1875.83 2136.49 1884.93 2133.81 1894.48 2131.65 1904.46 2129.95 1914.83 2128.68 1925.54 2127.79 1936.57 2127.24 1947.88 2126.95 1971.2 2127.54 1996.52C2127.58 1998.42 2126.08 1999.99 2124.18 2000.03 2122.28 2000.08 2120.71 1998.57 2120.66 1996.68L2120.08 1971.11 2120.37 1947.54 2120.94 1936.02 2121.85 1924.73 2123.17 1913.71 2124.93 1903 2127.2 1892.62 2130.02 1882.61 2133.46 1873.02 2137.57 1863.89 2142.4 1855.25 2147.99 1847.16 2154.37 1839.67 2161.47 1832.77 2169.24 1826.42 2177.64 1820.58 2186.6 1815.19 2196.08 1810.23 2206.02 1805.65 2216.39 1801.41 2227.13 1797.47 2238.22 1793.79 2261.11 1787.08 2284.73 1780.97 2308.69 1775.16C2310.54 1774.71 2312.39 1775.85 2312.84 1777.69 2313.29 1779.54 2312.16 1781.39 2310.31 1781.84ZM2137.68 1991.54 2124.89 2019.5 2110.2 1992.49Z" fill="#4D4D4D"/></g></svg>