<svg width="1292" height="1521" xmlns="http://www.w3.org/2000/svg" xmlns:xlink="http://www.w3.org/1999/xlink" xml:space="preserve" overflow="hidden"><g transform="translate(-2897 -606)"><path d="M3111.79 1939.66C2900.85 1710.62 2914.25 1355.13 3141.71 1145.64 3295.08 1004.39 3433.53 846.942 3557.07 673.293 3667.13 857.363 3793.27 1026.62 3935.5 1181.05 4146.44 1410.09 4133.05 1765.59 3905.59 1975.07 3678.12 2184.56 3322.73 2168.7 3111.79 1939.66Z" stroke="#000000" stroke-width="9.16667" stroke-linecap="round" stroke-linejoin="round" stroke-miterlimit="10" stroke-opacity="0" fill="#FF0000" fill-rule="evenodd" fill-opacity="0.701961"/><path d="M3245.19 1908.74C3102.57 1753.88 3111.63 1513.53 3265.42 1371.9 3358.24 1286.42 3451.06 1200.94 3543.87 1115.45 3629.95 1208.92 3716.03 1302.38 3802.1 1395.84 3944.72 1550.7 3935.66 1791.05 3781.88 1932.68 3628.09 2074.31 3387.81 2063.59 3245.19 1908.74Z" stroke="#000000" stroke-width="9.16667" stroke-linecap="round" stroke-linejoin="round" stroke-miterlimit="10" stroke-opacity="0" fill="#FF6600" fill-rule="evenodd" fill-opacity="0.701961"/><path d="M3132.25 1397.64C3040.18 1323.08 3022.33 1192.52 3092.37 1106.01 3143.24 1043.19 3182.81 971.239 3211.1 890.143 3260.79 965.492 3319.06 1030.24 3385.92 1084.37 3477.99 1158.93 3495.85 1289.5 3425.8 1376 3355.75 1462.51 3224.33 1472.19 3132.25 1397.64Z" stroke="#000000" stroke-width="9.16667" stroke-linecap="round" stroke-linejoin="round" stroke-miterlimit="10" stroke-opacity="0" fill="#FF0000" fill-rule="evenodd" fill-opacity="0.4"/><path d="M3677.28 1388.6C3610.38 1292.84 3631.18 1162.8 3723.73 1098.15 3790.93 1051.21 3849.93 992.523 3900.74 922.1 3926.62 1007.49 3963.85 1084.95 4012.42 1154.49 4079.32 1250.26 4058.52 1380.3 3965.97 1444.94 3873.42 1509.59 3744.17 1484.37 3677.28 1388.6Z" stroke="#000000" stroke-width="9.16667" stroke-linecap="round" stroke-linejoin="round" stroke-miterlimit="10" stroke-opacity="0" fill="#FF0000" fill-rule="evenodd" fill-opacity="0.4"/><path d="M3376.74 1859.6C3301.49 1777.9 3306.27 1651.1 3387.41 1576.37 3436.38 1531.27 3485.35 1486.17 3534.32 1441.07 3579.73 1490.38 3625.14 1539.69 3670.56 1589 3745.8 1670.7 3741.02 1797.51 3659.89 1872.23 3578.75 1946.96 3451.98 1941.3 3376.74 1859.6Z" stroke="#000000" stroke-width="9.16667" stroke-linecap="round" stroke-linejoin="round" stroke-miterlimit="10" stroke-opacity="0" fill="#EFDF4D" fill-rule="evenodd" fill-opacity="0.501961"/><path d="M3669.03 771.094C3641.67 732.242 3637.53 688.053 3659.77 672.394 3674.11 662.301 3687.32 650.617 3699.41 637.342 3715.22 663.665 3731.94 689.347 3749.57 714.387 3776.92 753.239 3781.07 797.429 3758.83 813.088 3736.58 828.747 3696.38 809.946 3669.03 771.094Z" fill="#FF0000" fill-rule="evenodd" fill-opacity="0.501961"/><path d="M3359.45 789.791C3346.54 782.419 3358.83 736.609 3386.89 687.471 3402.55 660.042 3418.8 632.948 3435.64 606.187 3445.39 605.845 3453.87 607.732 3461.07 611.847 3473.98 619.218 3461.69 665.029 3433.63 714.167 3405.57 763.305 3372.36 797.163 3359.45 789.791Z" fill="#FF0000" fill-rule="evenodd" fill-opacity="0.501961"/><path d="M3034.85 1675.96C2916.45 1572.24 2864.51 1437.88 2918.85 1375.85 2959.84 1329.05 2982.97 1266.61 2988.23 1188.51 3061.16 1285.48 3142.29 1373.1 3231.62 1451.35 3350.02 1555.07 3401.96 1689.44 3347.62 1751.46 3293.29 1813.49 3153.25 1779.69 3034.85 1675.96Z" fill="#FF0000" fill-rule="evenodd" fill-opacity="0.501961"/><path d="M3801.46 1793.57C3751.27 1733.81 3792.42 1616.65 3893.36 1531.89 3969.51 1467.94 4038.09 1394.97 4099.1 1312.99 4106.5 1383.65 4129.13 1441.53 4166.99 1486.61 4217.17 1546.37 4176.03 1663.53 4075.09 1748.3 3974.15 1833.06 3851.64 1853.33 3801.46 1793.57Z" fill="#FF0000" fill-rule="evenodd" fill-opacity="0.501961"/><path d="M3523.1 1842.66C3516.2 1849.98 3490.22 1868.77 3481.69 1886.59 3473.17 1904.41 3473.57 1939.07 3471.95 1949.57" stroke="#000000" stroke-width="18.3333" stroke-linecap="round" stroke-linejoin="round" stroke-miterlimit="10" fill="none" fill-rule="evenodd"/><path d="M3522.31 1663.14C3522.31 1686.12 3517.06 1765.23 3522.31 1801.02 3527.55 1836.8 3547.17 1852.88 3553.79 1877.83 3560.4 1902.78 3560.63 1938.56 3562 1950.71" stroke="#000000" stroke-width="18.3333" stroke-linecap="round" stroke-linejoin="round" stroke-miterlimit="10" fill="none" fill-rule="evenodd"/><path d="M3194 1327C3194 1133.7 3350.48 977 3543.5 977 3736.52 977 3893 1133.7 3893 1327 3893 1520.3 3736.52 1677 3543.5 1677 3350.48 1677 3194 1520.3 3194 1327Z" stroke="#000000" stroke-width="18.3333" stroke-linecap="round" stroke-linejoin="round" stroke-miterlimit="10" fill="#A9D18E" fill-rule="evenodd"/><path d="M3522.55 1766.31C3535.7 1772.59 3584.23 1806.11 3601.47 1803.96 3618.72 1801.82 3621.94 1761.86 3626.03 1753.44" stroke="#000000" stroke-width="18.3333" stroke-linecap="round" stroke-linejoin="round" stroke-miterlimit="10" fill="none" fill-rule="evenodd"/><path d="M3518.2 1761.96C3508.4 1768.3 3475.65 1801.36 3459.42 1799.95 3443.2 1798.55 3427.28 1761.26 3420.85 1753.52" stroke="#000000" stroke-width="18.3333" stroke-linecap="round" stroke-linejoin="round" stroke-miterlimit="10" fill="none" fill-rule="evenodd"/><path d="M3436 1361C3436 1343.33 3445.4 1329 3457 1329 3468.6 1329 3478 1343.33 3478 1361 3478 1378.67 3468.6 1393 3457 1393 3445.4 1393 3436 1378.67 3436 1361Z" fill-rule="evenodd"/><path d="M3622 1357C3622 1339.33 3631.4 1325 3643 1325 3654.6 1325 3664 1339.33 3664 1357 3664 1374.67 3654.6 1389 3643 1389 3631.4 1389 3622 1374.67 3622 1357Z" fill-rule="evenodd"/><path d="M3526 1469C3526 1463.48 3530.48 1459 3536 1459 3541.52 1459 3546 1463.48 3546 1469 3546 1474.52 3541.52 1479 3536 1479 3530.48 1479 3526 1474.52 3526 1469Z" fill-rule="evenodd"/><path d="M3571 1469C3571 1463.48 3575.48 1459 3581 1459 3586.52 1459 3591 1463.48 3591 1469 3591 1474.52 3586.52 1479 3581 1479 3575.48 1479 3571 1474.52 3571 1469Z" fill-rule="evenodd"/><path d="M3496 1288.94C3476.05 1271.41 3456.11 1253.88 3439.27 1255.06 3422.44 1256.23 3408.72 1276.12 3395 1296" stroke="#000000" stroke-width="13.75" stroke-linecap="round" stroke-linejoin="round" stroke-miterlimit="10" fill="none" fill-rule="evenodd"/><path d="M3470 1552C3501.69 1574.33 3533.37 1596.65 3558.37 1595.99 3583.37 1595.32 3601.69 1571.66 3620 1548" stroke="#000000" stroke-width="13.75" stroke-linecap="round" stroke-linejoin="round" stroke-miterlimit="10" fill="none" fill-rule="evenodd"/><path d="M3708 1277.11C3688.05 1260.01 3668.11 1242.91 3651.27 1244.05 3634.44 1245.2 3620.72 1264.6 3607 1284" stroke="#000000" stroke-width="13.75" stroke-linecap="round" stroke-linejoin="round" stroke-miterlimit="10" fill="none" fill-rule="evenodd"/></g></svg>