<svg width="545" height="229" xmlns="http://www.w3.org/2000/svg" xmlns:xlink="http://www.w3.org/1999/xlink" xml:space="preserve" overflow="hidden"><defs><clipPath id="clip0"><rect x="724" y="314" width="545" height="229"/></clipPath></defs><g clip-path="url(#clip0)" transform="translate(-724 -314)"><path d="M1088.18 316.708C1058.48 336.147 1060.63 522.918 1090.76 540.833 1120.9 558.748 1266.83 460.788 1268.98 424.196 1271.13 387.604 1117.88 297.268 1088.18 316.708Z" fill-rule="evenodd"/><path d="M724 393.334C724 383.761 731.76 376 741.333 376L1123.67 376C1133.24 376 1141 383.761 1141 393.334L1141 462.666C1141 472.239 1133.24 480 1123.67 480L741.333 480C731.76 480 724 472.239 724 462.666Z" fill-rule="evenodd"/></g></svg>